<?xml version="1.0" encoding="UTF-8" standalone="no"?>
<!-- Created with Inkscape (http://www.inkscape.org/) -->

<svg
   width="261"
   height="50"
   viewBox="0 0 69.056228 13.229167"
   version="1.1"
   id="svg5"
   inkscape:version="1.1.1 (3bf5ae0d25, 2021-09-20)"
   sodipodi:docname="logo.svg"
   xmlns:inkscape="http://www.inkscape.org/namespaces/inkscape"
   xmlns:sodipodi="http://sodipodi.sourceforge.net/DTD/sodipodi-0.dtd"
   xmlns="http://www.w3.org/2000/svg"
   xmlns:svg="http://www.w3.org/2000/svg">
  <sodipodi:namedview
     id="namedview7"
     pagecolor="#ffffff"
     bordercolor="#666666"
     borderopacity="1.0"
     inkscape:pageshadow="2"
     inkscape:pageopacity="0.0"
     inkscape:pagecheckerboard="0"
     inkscape:document-units="mm"
     showgrid="false"
     units="px"
     inkscape:zoom="0.9050967"
     inkscape:cx="65.186405"
     inkscape:cy="26.516504"
     inkscape:window-width="1366"
     inkscape:window-height="697"
     inkscape:window-x="-8"
     inkscape:window-y="-8"
     inkscape:window-maximized="1"
     inkscape:current-layer="layer1" />
  <defs
     id="defs2" />
  <g
     inkscape:label="Camada 1"
     inkscape:groupmode="layer"
     id="layer1"
     transform="translate(0,-283.77082)">
    <path
       id="path1463"
       style="fill:#99c2ff;fill-opacity:1;stroke-width:0.139981"
       d="m 68.644606,292.20975 h -1.278091 c -1.194055,0 -1.278091,-0.0203 -1.278091,-0.30748 0,-0.16913 0.328641,-0.79003 0.730318,-1.37982 0.586606,-0.86132 0.800387,-1.07233 1.086377,-1.07233 0.195833,0 0.35606,0.0526 0.35606,0.11711 0,0.0645 -0.290183,0.5474 -0.644849,1.07318 l -0.644848,0.956 h 0.836563 0.836561 z m 0,-3.06628 h -1.278091 -1.278091 v -0.38327 -0.38328 h 1.278091 1.278091 z m -3.523311,-7.72672 c -0.04141,-0.0414 -0.148906,-0.0458 -0.23887,-0.0103 -0.09942,0.0397 -0.06989,0.0693 0.07529,0.0754 0.131375,0.006 0.204987,-0.024 0.163574,-0.0655 z m -55.094253,14.51366 c -0.6701598,-0.52728 -1.2568012,-1.03004 -1.303647,-1.11726 -0.04685,-0.0872 -0.0961,-0.17194 -0.1094605,-0.18829 -0.01336,-0.0163 -0.1590363,0.0731 -0.3237307,0.19868 l -0.2994458,0.2284 -0.2861898,-0.24101 c -0.1574043,-0.13256 -0.7517477,-0.64107 -1.3207631,-1.13001 l -1.0345744,-0.889 -1.4513077,-0.0423 -1.4513066,-0.0423 -1.0377058,-1.31233 c -0.57073785,-0.72179 -1.03869249,-1.38854 -1.03989909,-1.48167 -0.00121,-0.0931 0.0931016,-0.66434 0.20957268,-1.26934 l 0.21176647,-1.10001 1.02952984,-1.03201 1.0295301,-1.03201 1.1923987,-0.54828 1.1923978,-0.54827 1.7376424,-0.17721 c 0.9557037,-0.0975 1.86286,-0.1772 2.0159033,-0.1772 0.2601388,0 5.4938672,1.79932 5.6134902,1.92988 0.07476,0.0816 1.089253,4.09933 1.089253,4.31382 0,0.14879 -0.821502,1.58288 -1.279769,2.23408 -0.08623,0.12253 -0.719376,0.6138 -1.406996,1.0917 -0.68762,0.4779 -1.281674,0.89678 -1.32012,0.93085 -0.03845,0.0341 0.199678,0.56137 0.529164,1.1718 0.329486,0.61043 0.599067,1.12952 0.599067,1.15353 0,0.024 -0.352423,0.0416 -0.783163,0.0391 l -0.783164,-0.005 -1.218473,-0.95869 z m 1.000181,-0.76403 c -0.241085,-0.4512 -0.404894,-0.85019 -0.364021,-0.88663 0.04087,-0.0365 0.741062,-0.53433 1.555976,-1.10641 0.814913,-0.57208 1.508906,-1.08243 1.542206,-1.13411 0.04335,-0.0673 -0.425208,-0.106 -1.649467,-0.13631 l -1.710014,-0.0423 -0.198368,-0.35984 -0.198369,-0.35983 H 8.7415159 c -0.6950082,0 -1.2636517,0.0296 -1.2636517,0.0658 0,0.0362 0.05931,0.15051 0.1318004,0.254 0.09773,0.13954 0.2168051,0.18817 0.460668,0.18817 0.1808774,0 0.3524147,-0.0381 0.3811946,-0.0847 0.1590772,-0.25739 0.8043304,0.1242 0.8043304,0.47566 0,0.30241 -0.3811443,0.65966 -0.6186082,0.57982 -0.1021476,-0.0343 -0.4507501,-0.0858 -0.7746729,-0.11446 l -0.5889514,-0.052 -0.3882782,-0.67733 C 6.5459803,291.1839 6.4643347,291.09534 6.2372277,291.07292 6.0036987,291.04982 5.9269,290.95796 5.478798,290.16527 l -0.4985898,-0.882 -1.8732418,-0.002 -1.8732414,-0.002 -0.051519,0.2576 c -0.043857,0.21928 0.013439,0.34206 0.3852361,0.8255 0.676248,0.87931 0.5959113,0.84874 0.9528158,0.36254 0.2848107,-0.38799 0.3471254,-0.42964 0.6428521,-0.42964 0.1801092,0 0.4245131,-0.0442 0.5431207,-0.0983 0.5889253,-0.26833 1.0598613,0.60463 0.5204726,0.9648 -0.1370064,0.0915 -0.5405806,0.0781 -0.6011553,-0.0199 -0.02878,-0.0466 -0.1244474,-0.0847 -0.2125951,-0.0847 -0.1814672,0 -0.67227,0.65937 -0.6144563,0.8255 0.02743,0.0788 0.3885253,0.10583 1.4148558,0.10583 h 1.3780229 l 0.3417615,0.27517 c 0.1879682,0.15134 0.7221558,0.60854 1.1870838,1.01599 0.464928,0.40746 0.8711942,0.74083 0.902814,0.74083 0.03162,0 0.3554627,-0.22682 0.7196501,-0.50405 0.3641884,-0.27724 0.685787,-0.48044 0.7146649,-0.45156 0.02888,0.0289 0.052809,0.37953 0.05319,0.77923 l 6.77e-4,0.72671 0.9518144,0.73046 c 0.523497,0.40175 0.963223,0.72054 0.977168,0.70842 0.01394,-0.0121 -0.171896,-0.3912 -0.41298,-0.84241 z m 3.524346,-4.45524 c 0.387742,-0.61423 0.419365,-0.58622 -0.662,-0.58622 -0.69434,0 -1.063851,0.0382 -1.292273,0.13366 -0.30071,0.12564 -0.333064,0.12384 -0.539505,-0.0301 -0.535838,-0.39966 -0.153619,-1.18262 0.462896,-0.94822 0.119631,0.0455 0.655747,0.0827 1.191368,0.0827 0.887879,0 0.969954,-0.0131 0.929646,-0.14817 -0.02432,-0.0815 -0.08877,-0.33 -0.143237,-0.55224 l -0.09903,-0.40408 -1.489336,0.0231 -1.489338,0.0231 -0.259937,0.46567 -0.259937,0.46566 -1.8173446,0.0239 c -0.9995398,0.0132 -1.8935439,0.005 -1.9866775,-0.0187 -0.1071515,-0.027 -0.3541755,-0.37002 -0.672704,-0.9341 L 5.9207901,287.41566 H 3.9642806 2.0077723 l -0.2647508,0.27517 c -0.1456129,0.15134 -0.2905664,0.37994 -0.3221192,0.508 l -0.057369,0.23283 H 3.393885 5.4242371 l 0.5013228,0.86784 0.5013218,0.86783 1.9369367,0.0228 c 1.3176752,0.0155 1.9748986,0.0543 2.0556736,0.12134 0.06531,0.0542 0.192925,0.24396 0.283601,0.4217 l 0.164866,0.32317 h 1.732876 1.732876 z m -3.671295,-2.85106 0.288748,-0.48683 1.592782,-0.0231 1.592786,-0.0231 -0.05375,-0.1886 c -0.02956,-0.10372 -0.0775,-0.29766 -0.106535,-0.43097 -0.06306,-0.28954 0.07786,-0.22739 -2.790267,-1.23063 l -2.2121341,-0.77379 -1.8095153,0.17482 -1.809517,0.17481 -1.0159955,0.47826 c -0.5587975,0.26304 -1.14871,0.60418 -1.3109163,0.75808 l -0.2949217,0.27983 h 1.7873812 c 1.4976884,0 1.8047301,0.0209 1.8944247,0.12898 0.092719,0.11171 0.1357414,0.0862 0.3214435,-0.1905 0.1179206,-0.17572 0.25539,-0.34747 0.3054887,-0.38169 0.0501,-0.0342 0.5941184,-0.0628 1.2089329,-0.0635 0.6651341,-7.7e-4 1.2051796,-0.0411 1.3334941,-0.0996 0.4521868,-0.20603 0.9162558,0.27672 0.7071648,0.73563 -0.12199,0.26773 -0.416196,0.34541 -0.8165403,0.21557 -0.1838542,-0.0596 -0.6666111,-0.09 -1.1865178,-0.0746 l -0.8765463,0.026 -0.2540219,0.35101 -0.2540219,0.35101 0.22845,0.38982 0.228451,0.38983 h 1.5064516 1.5064516 z m 5.87381,2.43324 v -1.9164 h 0.354364 c 0.268297,0 0.409172,0.12092 0.580037,0.49827 0.124116,0.27404 0.330196,0.66276 0.457945,0.86382 l 0.232269,0.36554 0.433832,-0.85947 c 0.361028,-0.71523 0.494563,-0.86019 0.79573,-0.86382 l 0.3619,-0.004 -0.28978,0.57492 c -0.468897,0.93029 -1.269725,2.33803 -1.330049,2.33803 -0.03066,0 -0.258574,-0.36129 -0.506474,-0.80284 l -0.450729,-0.80286 v 1.26279 c 0,1.24477 -0.0045,1.26278 -0.319522,1.26278 h -0.319523 z m 2.556819,0.95821 c 5.11e-4,-0.79024 0.05572,-1.03882 0.314926,-1.41814 l 0.31429,-0.45995 0.0045,1.41815 c 0.0045,1.41196 0.0032,1.41816 -0.314927,1.41816 -0.306809,0 -0.319497,-0.0383 -0.318887,-0.95822 z m 1.234535,-0.38329 c 0.246558,-0.73779 0.493719,-1.39844 0.549248,-1.46807 0.05552,-0.0697 0.162395,0.0848 0.237482,0.34317 0.115014,0.39576 0.08227,0.62688 -0.207787,1.46691 -0.301994,0.87459 -0.386273,0.99728 -0.685768,0.99832 l -0.34146,10e-4 0.448285,-1.34149 z m 1.767041,0.68991 c -0.121429,-0.35836 -0.35168,-1.10001 -0.511677,-1.6481 -0.159996,-0.5481 -0.331863,-1.11727 -0.38192,-1.26483 -0.07408,-0.21842 -0.02308,-0.2683 0.274266,-0.2683 0.349898,0 0.386812,0.0726 0.876387,1.72454 0.663183,2.23768 0.646072,2.10829 0.278733,2.10829 -0.250771,0 -0.360041,-0.13292 -0.535789,-0.6516 z m 2.365773,-0.65157 c 0,-1.28783 0.0038,-1.30316 0.319523,-1.30316 0.315764,0 0.319523,0.0162 0.319523,1.30316 0,1.28783 -0.0038,1.30317 -0.319523,1.30317 -0.315764,0 -0.319523,-0.0162 -0.319523,-1.30317 z m 2.300566,-0.61326 v -1.9164 h 0.319523 0.319521 v 1.9164 1.91643 h -0.319521 -0.319523 z m 2.044948,1.14985 v -0.76657 h -0.511239 c -0.460112,0 -0.511238,-0.0384 -0.511238,-0.38328 0,-0.34495 0.05113,-0.38327 0.511238,-0.38327 h 0.511239 v -0.76658 c 0,-0.71545 0.0213,-0.76655 0.319521,-0.76655 h 0.319523 v 1.9164 1.91643 h -0.319523 c -0.298222,0 -0.319521,-0.051 -0.319521,-0.76658 z m 1.4059,0.37753 v -0.38903 l 1.182234,0.044 c 1.115793,0.0417 1.18453,0.0636 1.223076,0.38903 0.03991,0.33711 0.01298,0.34495 -1.182235,0.34495 h -1.223075 z m 3.568824,-0.059 c -0.360908,-0.43292 -0.373596,-0.498 -0.373596,-1.9164 0,-1.46394 9.41e-4,-1.46827 0.319522,-1.46827 0.317137,0 0.319525,0.0111 0.319525,1.37853 0,1.21249 0.0308,1.40157 0.255616,1.57 0.307403,0.23027 0.347395,0.88429 0.05408,0.88429 -0.110848,0 -0.369666,-0.20166 -0.575141,-0.44815 z m 1.160115,0.12006 c 0,-0.18035 0.100646,-0.41628 0.223664,-0.52413 0.177934,-0.15609 0.2328,-0.48078 0.268337,-1.58837 0.04401,-1.37161 0.04945,-1.39226 0.366719,-1.39226 h 0.322051 l -0.05439,1.41814 c -0.05777,1.50628 -0.205575,1.97469 -0.710128,2.25046 -0.402376,0.21991 -0.416252,0.21445 -0.416252,-0.16387 z m 1.789327,-0.0552 c 0,-0.36174 0.03896,-0.38327 0.693676,-0.38327 0.597154,0 0.730529,-0.0561 0.958567,-0.40396 0.145687,-0.22217 0.264895,-0.49813 0.264895,-0.61324 0,-0.12368 0.13722,-0.20931 0.335499,-0.20931 0.308929,0 0.329053,0.0385 0.2541,0.4882 -0.157534,0.94487 -0.850204,1.50488 -1.861343,1.50488 -0.603214,0 -0.645394,-0.025 -0.645394,-0.3833 z m 5.751414,0.23398 c 0,-0.22597 0.769561,-2.51347 0.899459,-2.67361 0.06733,-0.0829 0.170855,0.041 0.254405,0.30455 0.11832,0.37333 0.08658,0.61058 -0.19826,1.48144 -0.288231,0.88126 -0.385423,1.03694 -0.647376,1.03694 -0.169527,0 -0.308228,-0.0672 -0.308228,-0.1494 z m 2.107327,-0.50227 c -0.12155,-0.35837 -0.382955,-1.22075 -0.580912,-1.91641 l -0.359923,-1.26483 H 44.2244 c 0.341963,0 0.383011,0.0824 0.886559,1.77963 0.290398,0.97878 0.527998,1.84116 0.527998,1.9164 0,0.0752 -0.137537,0.13672 -0.305647,0.13672 -0.239711,0 -0.353317,-0.14052 -0.526637,-0.65158 z m 1.599139,-1.26483 v -1.91641 h 0.319521 0.319524 v 1.53313 1.53313 h 0.766855 c 0.732772,0 0.766856,0.0164 0.766856,0.38327 0,0.37878 -0.01283,0.3833 -1.086379,0.3833 h -1.086377 z m 3.195228,1.63077 c 0,-0.2417 0.13026,-0.29818 0.846874,-0.36718 0.864243,-0.0833 1.175005,-0.31423 0.919494,-0.68352 -0.08478,-0.12252 -0.44373,-0.1968 -0.951257,-0.1968 -0.780016,0 -0.815111,-0.0162 -0.815111,-0.37595 0,-0.35412 0.04645,-0.37863 0.798809,-0.42162 0.700916,-0.04 0.798808,-0.0833 0.798808,-0.35227 0,-0.26905 -0.0979,-0.31221 -0.798808,-0.35227 -0.752367,-0.0429 -0.798809,-0.0675 -0.798809,-0.4216 0,-0.35923 0.03558,-0.37586 0.798809,-0.37371 1.045648,0.004 1.425553,0.23471 1.479114,0.90228 0.02269,0.28284 -0.01654,0.58361 -0.08719,0.66835 -0.08606,0.10321 -0.04435,0.29054 0.126412,0.5676 0.181399,0.2943 0.229951,0.53256 0.168445,0.82652 -0.137446,0.6569 -0.512755,0.86582 -1.555455,0.86582 -0.82214,0 -0.93013,-0.0331 -0.930132,-0.28565 z m 3.323039,-0.0976 c 0,-0.38195 0.0042,-0.38329 1.214188,-0.38329 1.209925,0 1.214185,10e-4 1.214185,0.38329 0,0.38193 -0.0042,0.38326 -1.214185,0.38326 -1.209928,0 -1.214188,-10e-4 -1.214188,-0.38326 z m 3.195227,-0.60625 v -0.98952 l 0.849373,-0.0453 c 0.624612,-0.0333 0.884758,-0.11305 0.983109,-0.30079 0.249994,-0.47749 -0.111874,-0.74109 -1.017369,-0.74109 -0.793078,0 -0.815113,-0.0111 -0.815113,-0.39951 v -0.39953 l 1.00945,0.0551 c 1.219728,0.0664 1.546735,0.32366 1.546735,1.21664 0,0.43921 -0.07941,0.65326 -0.330052,0.88978 l -0.33005,0.31141 0.311194,0.50462 c 0.523723,0.84918 0.528194,0.88786 0.10265,0.88786 -0.312424,0 -0.455865,-0.12093 -0.727479,-0.61324 -0.236366,-0.42846 -0.42949,-0.61326 -0.640859,-0.61326 -0.267754,0 -0.302537,0.0705 -0.302537,0.61326 0,0.55193 -0.03196,0.61324 -0.319524,0.61324 -0.307821,0 -0.319524,-0.0362 -0.319524,-0.98952 z m 3.195231,-0.46695 c 0,-0.80106 0.05092,-1.45646 0.113111,-1.45646 0.297776,0 0.525937,0.79577 0.525937,1.83435 0,1.04828 -0.0089,1.07857 -0.319522,1.07857 -0.318402,0 -0.319525,-0.005 -0.319526,-1.45646 z m 1.214187,-0.3249 c -0.562361,-0.97205 -1.041645,-1.83128 -1.065076,-1.90941 -0.02342,-0.078 0.102184,-0.14196 0.279147,-0.14196 0.254548,0 0.470316,0.24711 1.033122,1.18326 l 0.711376,1.18327 v -1.18327 c 0,-1.15994 0.0064,-1.18326 0.319523,-1.18326 h 0.319523 v 1.9164 c 0,1.88725 -0.0044,1.91632 -0.287571,1.90942 -0.21982,-0.005 -0.52846,-0.42338 -1.310044,-1.77437 z m 2.018474,1.58972 c 0.03563,-0.10542 0.25208,-0.7608 0.481002,-1.45645 0.228925,-0.69567 0.452132,-1.26483 0.496015,-1.26483 0.04388,0 0.140798,0.19386 0.215352,0.4308 0.11136,0.35388 0.0766,0.61394 -0.194653,1.45647 -0.300858,0.93448 -0.36277,1.02565 -0.696356,1.02565 -0.242255,0 -0.344221,-0.0648 -0.30136,-0.19164 z m 2.282922,-0.0766 c -0.143228,-0.32841 -1.042261,-3.32801 -1.042261,-3.47749 0,-0.0591 0.152927,-0.0856 0.339838,-0.0588 0.304653,0.0434 0.388858,0.20775 0.813328,1.58664 0.72346,2.35016 0.703818,2.21803 0.329747,2.21803 -0.178444,0 -0.376133,-0.12044 -0.440652,-0.26829 z m -34.400454,-1.64814 c 0,-0.37875 0.01283,-0.38327 1.086379,-0.38327 1.073595,0 1.086377,0.004 1.086377,0.38327 0,0.37878 -0.01283,0.3833 -1.086377,0.3833 -1.073598,0 -1.086379,-0.004 -1.086379,-0.3833 z m 22.494413,0 c 0,-0.37875 0.01283,-0.38327 1.086378,-0.38327 1.073597,0 1.086378,0.004 1.086378,0.38327 0,0.37878 -0.01283,0.3833 -1.086378,0.3833 -1.073597,0 -1.086378,-0.004 -1.086378,-0.3833 z m -15.975668,-0.11498 c 7.68e-4,-0.55121 0.478919,-1.34116 0.956783,-1.58066 0.242237,-0.1213 0.701091,-0.22076 1.019674,-0.22076 0.532657,0 0.579247,0.0308 0.579247,0.3833 0,0.35534 -0.0445,0.38327 -0.610607,0.38327 -0.729321,0 -1.128282,0.29539 -1.24266,0.92006 -0.06524,0.35637 -0.153755,0.45974 -0.393548,0.45974 -0.235761,0 -0.309255,-0.0821 -0.308889,-0.34495 z m -13.29263,-1.41812 v -0.3833 h 1.341994 1.341997 v 0.3833 0.38327 h -1.341997 -1.341994 z m 6.773885,0.005 v -0.38904 h 1.223075 c 1.195271,0 1.22215,0.007 1.182235,0.34495 -0.03854,0.32558 -0.10727,0.34744 -1.223076,0.38904 l -1.182234,0.044 v -0.38904 z m 22.494413,-0.005 c 0,-0.38196 0.0042,-0.3833 1.214188,-0.3833 1.209925,0 1.214185,10e-4 1.214185,0.3833 0,0.38193 -0.0042,0.38327 -1.214185,0.38327 -1.209928,0 -1.214188,-0.001 -1.214188,-0.38327 z" />
  </g>
</svg>
