<?xml version="1.0" encoding="UTF-8" standalone="no"?>
<!-- Created with Inkscape (http://www.inkscape.org/) -->

<svg
   version="1.1"
   id="svg1208"
   width="677.96613"
   height="677.96613"
   viewBox="0 0 677.96613 677.96613"
   sodipodi:docname="projeto.svg"
   inkscape:version="1.1.1 (3bf5ae0d25, 2021-09-20)"
   xmlns:inkscape="http://www.inkscape.org/namespaces/inkscape"
   xmlns:sodipodi="http://sodipodi.sourceforge.net/DTD/sodipodi-0.dtd"
   xmlns="http://www.w3.org/2000/svg"
   xmlns:svg="http://www.w3.org/2000/svg">
  <defs
     id="defs1212" />
  <sodipodi:namedview
     id="namedview1210"
     pagecolor="#ffffff"
     bordercolor="#666666"
     borderopacity="1.0"
     inkscape:pageshadow="2"
     inkscape:pageopacity="0.0"
     inkscape:pagecheckerboard="0"
     showgrid="false"
     inkscape:zoom="0.35252499"
     inkscape:cx="-190.05745"
     inkscape:cy="221.26091"
     inkscape:window-width="1366"
     inkscape:window-height="697"
     inkscape:window-x="-8"
     inkscape:window-y="-8"
     inkscape:window-maximized="1"
     inkscape:current-layer="g1214" />
  <g
     inkscape:groupmode="layer"
     inkscape:label="Image"
     id="g1214">
    <path
       style="fill:#091d34;stroke-width:2.57568;fill-opacity:1"
       d="m 37.263137,655.41034 c -5.15861,-3.00519 -11.823204,-9.81229 -14.810208,-15.12696 -5.305884,-9.44055 -5.430916,-12.39749 -5.430916,-128.4379 V 393.07058 H 31.1883 45.354586 v 116.67868 c 0,87.31584 0.777825,117.45652 3.090826,119.76951 2.350967,2.35097 51.023411,3.09083 203.333328,3.09083 h 200.24251 l 4.0096,-5.7245 c 3.38252,-4.8292 4.00957,-16.33048 4.00957,-73.54172 v -67.81723 l 13.52237,0.77853 13.52235,0.77852 v 72.11928 c 0,67.48693 -0.33086,72.68104 -5.15136,80.86495 -2.83327,4.81013 -8.42333,11.18495 -12.42239,14.16629 -7.23429,5.3932 -8.32113,5.4237 -215.06999,6.03058 -207.6381,0.60949 -207.806231,0.60573 -217.178263,-4.85396 z m 494.252643,2.74984 c -4.16752,-2.42736 -4.50747,-9.99729 -4.50747,-100.37353 V 460.03848 H 328.99568 c -180.88424,0 -198.3184,-0.36771 -201.54761,-4.25082 -2.59598,-3.12168 -3.75208,-15.43697 -4.35225,-46.36239 l -0.81726,-42.11158 H 75.37477 c -38.282926,0 -47.955943,-0.73695 -52.628273,-4.00957 l -5.724484,-4.0096 V 192.20481 c 0,-148.465494 0.451145,-167.540864 4.047511,-171.137229 8.246261,-8.246262 14.641665,-4.770499 42.31488,22.997217 L 90.337093,71.109527 H 274.80786 459.27861 l 8.61264,5.804051 c 11.95938,8.059432 17.61361,18.974973 19.58144,37.802172 l 1.68257,16.09784 56.93894,-56.896762 C 589.05387,30.98897 604.57044,17.02007 609.29471,17.02007 c 8.83134,0 51.64941,42.84744 51.64941,51.684815 0,4.837019 -20.00569,26.295999 -86.28556,92.553735 L 488.373,247.51535 v 45.73288 45.73289 h 19.31766 19.31765 v -16.34276 c 0,-23.82642 1.74241,-24.86826 41.59027,-24.86826 20.87796,0 36.66768,1.33576 44.98424,3.80551 16.77554,4.98179 33.68148,19.72655 41.24739,35.97444 l 6.06358,13.02167 0.0257,151.13772 c 0.0232,133.98558 -0.43419,151.59705 -4.02235,155.18522 -3.44651,3.4465 -12.72107,4.03587 -62.46045,3.96919 -34.86308,-0.0469 -60.23016,-1.13676 -62.92038,-2.70367 z M 632.61154,494.12617 c 0,-155.98449 0.65227,-150.58317 -19.58579,-162.18582 -8.37884,-4.80366 -13.96592,-5.75991 -33.85974,-5.7953 l -23.82512,-0.0424 v 153.25346 153.25346 h 38.63533 38.63532 z m -56.27817,106.2177 c -9.71194,-8.17206 -12.14882,-18.49704 -7.17514,-30.40075 3.93222,-9.41112 15.15491,-17.17986 24.81799,-17.17986 9.64147,0 20.88587,7.76895 24.79881,17.13391 10.84864,25.96447 -20.79258,48.66318 -42.44166,30.4467 z M 189.59313,418.82747 v -12.87845 h 14.1663 14.16628 v 12.87845 12.87844 h 12.87845 12.87844 v -12.87844 -12.87845 h 14.16628 14.16629 v 12.87845 12.87844 h 12.87844 12.87844 v -12.87844 -12.87845 h 14.16629 14.16628 v 12.87845 12.87844 h 12.87844 12.87845 v -12.87844 -12.87845 h 14.16628 14.16629 v 12.87845 12.87844 h 12.87844 12.87844 v -12.87844 -12.87845 h 14.16629 14.16628 v 12.87845 12.87844 h 12.87844 12.87845 v -12.87844 -12.87845 h 14.16628 14.1663 v 12.87845 12.87844 h 19.31766 19.31765 V 399.5098 367.31369 H 338.98306 150.95782 v 32.19611 32.19611 h 19.31765 19.31766 z m 128.78443,-80.49939 c 0,-0.35915 -61.43017,-62.07499 -136.51149,-137.14629 L 45.354586,64.688532 V 201.83482 338.98112 H 181.86607 c 75.08132,0 136.51149,-0.29386 136.51149,-0.65304 z M 75.374203,308.51397 c -3.708098,-4.0974 -4.262733,-12.46792 -4.262733,-64.33283 v -59.62257 l 6.242959,-4.09054 c 5.575041,-3.65291 7.021767,-3.68013 13.522363,-0.25443 4.003674,2.10987 31.329898,28.03742 60.724938,57.61677 56.90177,57.25852 60.40554,62.49971 47.72105,71.38429 -4.7623,3.33565 -15.30186,4.00958 -62.70516,4.00958 -51.930858,0 -57.358465,-0.41744 -61.243417,-4.71027 z m 53.690257,-51.95488 c -15.5346,-15.58291 -29.133783,-28.33257 -30.220414,-28.33257 -2.417013,0 -2.664261,52.54232 -0.258565,54.94801 0.944417,0.94443 14.543599,1.71714 30.220409,1.71714 h 28.50329 z m 330.97596,50.56478 v -31.85722 l -22.53728,4.71099 c -16.63165,3.47651 -34.17977,4.73759 -66.96789,4.81249 l -44.43063,0.10154 V 272.08798 259.2843 l 34.12334,-0.71868 34.12336,-0.71869 4.28806,-20.34065 4.28806,-20.34065 28.80125,-28.88318 28.80124,-28.88317 -0.88869,-27.28011 c -0.58277,-17.89038 -2.0408,-28.43056 -4.23598,-30.62252 -2.65929,-2.655377 -37.46889,-3.486084 -169.35151,-4.041455 -91.30231,-0.384483 -166.0042,0.190423 -166.0042,1.277567 0,1.087147 53.60184,55.587768 119.1152,121.112498 l 119.11522,119.13586 h 50.88022 50.88023 z m 81.84665,-151.72889 85.68132,-85.709986 -9.77388,-9.543952 -9.77389,-9.543947 -86.14712,86.175925 -86.14712,86.17592 8.79873,9.07801 c 4.83934,4.99291 9.44719,9.07801 10.23968,9.07801 0.79251,0 39.99753,-38.56949 87.12228,-85.70998 z M 74.202296,603.76189 C 72.147567,601.70716 71.11147,590.48278 71.11147,570.27794 v -30.39312 h 12.770098 12.770096 l 0.752268,19.96159 0.752266,19.96158 19.961582,0.75225 19.96159,0.75229 v 12.77008 12.77011 h -30.39312 c -20.204848,0 -31.429225,-1.0361 -33.483954,-3.09083 z m 89.633964,-9.78762 v -12.87844 h 14.16628 14.16629 v 12.87844 12.87845 h -14.16629 -14.16628 z"
       id="path1329" />
  </g>
</svg>
