<?xml version="1.0" encoding="UTF-8" standalone="no"?>
<!-- Created with Inkscape (http://www.inkscape.org/) -->

<svg
   version="1.1"
   id="svg824"
   width="634.92065"
   height="634.92065"
   viewBox="0 0 634.92065 634.92065"
   sodipodi:docname="biografia.svg"
   inkscape:version="1.1.1 (3bf5ae0d25, 2021-09-20)"
   xmlns:inkscape="http://www.inkscape.org/namespaces/inkscape"
   xmlns:sodipodi="http://sodipodi.sourceforge.net/DTD/sodipodi-0.dtd"
   xmlns="http://www.w3.org/2000/svg"
   xmlns:svg="http://www.w3.org/2000/svg">
  <defs
     id="defs828" />
  <sodipodi:namedview
     id="namedview826"
     pagecolor="#ffffff"
     bordercolor="#666666"
     borderopacity="1.0"
     inkscape:pageshadow="2"
     inkscape:pageopacity="0.0"
     inkscape:pagecheckerboard="0"
     showgrid="false"
     inkscape:zoom="0.38272499"
     inkscape:cx="297.86401"
     inkscape:cy="175.06043"
     inkscape:window-width="1366"
     inkscape:window-height="697"
     inkscape:window-x="-8"
     inkscape:window-y="-8"
     inkscape:window-maximized="1"
     inkscape:current-layer="g830" />
  <g
     inkscape:groupmode="layer"
     inkscape:label="Image"
     id="g830">
    <path
       style="fill:#091d34;fill-opacity:1;stroke-width:2.53968"
       d="M 58.382704,609.865 C 45.406203,603.95506 30.278853,587.21281 26.664768,574.76108 24.674117,567.90262 24.075156,494.2951 24.610755,322.33959 L 25.36683,79.599776 32.985878,67.370884 C 38.285329,58.865045 44.85752,52.740377 54.57318,47.253538 L 68.541434,39.36508 279.90001,38.660176 c 209.40315,-0.698385 211.40625,-0.657265 216.50794,4.444445 4.70692,4.70691 5.14936,8.365988 5.14936,42.586434 V 123.12814 L 553.23586,71.49572 C 595.71868,29.050807 605.9997,20.016681 611.01364,20.725299 l 6.09923,0.862003 -0.0467,66.031748 c -0.0528,74.64083 -1.93539,85.75982 -21.64099,127.81047 -13.76976,29.38384 -29.11104,49.95979 -63.96361,85.7889 l -29.90423,30.74222 v 136.40887 c 0,89.17333 -0.91038,138.10995 -2.62903,141.32127 -2.56767,4.79774 -7.62154,4.91111 -216.50794,4.85664 C 80.996729,614.49485 67.949838,614.22221 58.382704,609.865 Z M 478.70017,554.86216 V 515.43859 L 274.44071,516.132 c -202.73444,0.68823 -204.312998,0.73308 -211.428581,6.0063 -13.517446,10.0175 -19.166799,21.16818 -18.013382,35.55474 1.216084,15.16823 8.290806,26.45615 20.287279,32.36899 7.463741,3.67873 29.501324,4.11409 210.874454,4.16587 l 202.53969,0.0578 z m -422.367396,-52.63993 9.668978,-5.71428 206.349198,-0.69275 206.34922,-0.69275 v -70.2001 -70.20011 l -17.53085,16.9246 -17.53084,16.9246 h -44.13839 -44.13842 l -27.35385,26.66667 c -15.04462,14.66666 -28.23711,26.66666 -29.31662,26.66666 -1.07955,0 -4.67985,-2.89219 -8.00069,-6.42707 l -6.03792,-6.42707 28.45235,-28.53331 28.45237,-28.53329 v -44.42235 -44.42235 l 68.57143,-68.53615 68.57143,-68.53615 V 103.5097 60.952382 H 274.63129 70.562427 l -8.629544,5.76491 C 43.444847,79.068103 44.422798,66.095539 44.418396,299.04763 c -0.0022,114.88889 0.502156,208.88889 1.120727,208.88889 0.61857,0 5.475713,-2.57143 10.793651,-5.71429 z M 171.39857,436.82541 v -10.15873 h 50.79365 50.79366 v 10.15873 10.15873 h -50.79366 -50.79365 z m 0,-50.79365 v -10.15874 h 64.76191 64.7619 v 10.15874 10.15873 h -64.7619 -64.76191 z m 0,-48.25397 v -10.15873 h 74.92064 74.92063 v 10.15873 10.15873 h -74.92063 -74.92064 z m 74.98823,-51.33898 c -50.5972,-6.51515 -89.42789,-56.434 -83.91835,-107.88135 3.59053,-33.52787 27.97071,-67.09886 59.16588,-81.470166 12.54304,-5.778456 18.0006,-6.708196 39.97638,-6.810306 23.72945,-0.110248 26.59002,0.442862 42.30776,8.180675 41.39802,20.380187 64.34677,65.376297 55.40803,108.639727 -11.04056,53.4361 -57.98806,86.41728 -112.9397,79.34142 z m 48.94503,-27.08518 c 13.62065,-7.00515 15.04574,-10.6433 9.22512,-23.55115 -5.58812,-12.39222 -16.32417,-20.98483 -31.14867,-24.92984 -19.7957,-5.26792 -43.18969,4.52137 -53.14811,22.23999 -7.29298,12.9761 -7.16263,17.23198 0.68528,22.37413 19.39598,12.70873 53.72469,14.49326 74.38638,3.86687 z m -79.03822,-52.76227 c 13.29007,-12.91852 13.41799,-13.18649 9.6988,-20.31746 -5.38028,-10.31586 -4.78235,-28.44141 1.26546,-38.3606 15.12507,-24.8071 53.47381,-24.8071 68.59886,0 6.16234,10.10703 6.81412,31.31738 1.20831,39.32079 -3.66921,5.23853 -3.14276,6.22609 10.79365,20.24764 8.05806,8.10727 15.9728,17.02621 17.58834,19.81986 2.74278,4.74293 3.21148,4.43935 7.07617,-4.58318 17.87291,-41.72622 2.94001,-84.66301 -36.13506,-103.8996 -22.51688,-11.08502 -45.44797,-11.6616 -66.57687,-1.67401 -28.83615,13.63079 -43.42753,35.30528 -45.17447,67.10355 -0.95078,17.30654 -0.2257,22.52436 4.73139,34.04742 l 5.85427,13.6086 3.80172,-6.11091 c 2.09095,-3.36101 9.86219,-12.00195 17.26943,-19.2021 z m 58.07754,-24.88861 c 12.17737,-12.17738 4.10133,-31.86148 -13.07221,-31.86148 -9.56302,0 -18.78926,9.57798 -18.78926,19.50556 0,8.07578 10.7729,18.58968 19.04762,18.58968 3.61905,0 9.38527,-2.80519 12.81385,-6.23376 z m 218.74979,127.50361 c 58.94217,-59.39529 72.91381,-77.2126 87.58794,-111.69628 12.45128,-29.2601 17.28452,-58.14613 17.323,-103.531584 L 598.06525,54.623658 479.97001,172.69842 361.87477,290.77319 v 30.47154 30.47155 l 80.72371,-80.69415 80.72368,-80.69413 7.1344,7.44671 7.1344,7.44671 -79.89354,80.24645 -79.89354,80.24642 h 29.62009 29.62012 z"
       id="path950" />
  </g>
</svg>
