<?xml version="1.0" encoding="UTF-8" standalone="no"?>
<svg
   version="1.1"
   width="1440"
   height="560"
   preserveAspectRatio="none"
   viewBox="0 0 1440 560"
   id="svg718"
   sodipodi:docname="Circuit Board.svg"
   inkscape:version="1.1.1 (3bf5ae0d25, 2021-09-20)"
   xmlns:inkscape="http://www.inkscape.org/namespaces/inkscape"
   xmlns:sodipodi="http://sodipodi.sourceforge.net/DTD/sodipodi-0.dtd"
   xmlns="http://www.w3.org/2000/svg"
   xmlns:svg="http://www.w3.org/2000/svg">
  <sodipodi:namedview
     id="namedview720"
     pagecolor="#ffffff"
     bordercolor="#666666"
     borderopacity="1.0"
     inkscape:pageshadow="2"
     inkscape:pageopacity="0.0"
     inkscape:pagecheckerboard="0"
     showgrid="false"
     inkscape:zoom="0.42534722"
     inkscape:cx="732.34286"
     inkscape:cy="338.54694"
     inkscape:window-width="1366"
     inkscape:window-height="697"
     inkscape:window-x="1912"
     inkscape:window-y="-8"
     inkscape:window-maximized="1"
     inkscape:current-layer="svg718" />
  <g
     mask="url(&quot;#SvgjsMask1058&quot;)"
     fill="none"
     id="g474"
     style="stroke:#f2f2f2">
    <rect
       width="1440"
       height="560"
       x="0"
       y="0"
       fill="rgba(255, 255, 255, 1)"
       id="rect2"
       style="stroke:#f2f2f2" />
    <g
       mask="url(&quot;#SvgjsMask1059&quot;)"
       id="g472"
       style="stroke:#f2f2f2">
      <path
         d="M1012.5 148.5L1012.5 310.5L769.5 553.5L661.5 553.5"
         stroke-width="4.5"
         stroke="rgba(243, 243, 243, 1)"
         id="path4"
         style="stroke:#f2f2f2" />
      <path
         d="M1005.75 148.5 a6.75 6.75 0 1 0 13.5 0 a6.75 6.75 0 1 0 -13.5 0zM654.75 553.5 a6.75 6.75 0 1 0 13.5 0 a6.75 6.75 0 1 0 -13.5 0z"
         fill="rgba(243, 243, 243, 1)"
         id="path6"
         style="stroke:#f2f2f2" />
      <path
         d="M13.5 418.5L148.5 553.5L526.5 553.5"
         stroke-width="4.5"
         stroke="rgba(243, 243, 243, 1)"
         id="path8"
         style="stroke:#f2f2f2" />
      <path
         d="M6.75 418.5 a6.75 6.75 0 1 0 13.5 0 a6.75 6.75 0 1 0 -13.5 0zM519.75 553.5 a6.75 6.75 0 1 0 13.5 0 a6.75 6.75 0 1 0 -13.5 0z"
         fill="rgba(243, 243, 243, 1)"
         id="path10"
         style="stroke:#f2f2f2" />
      <path
         d="M121.5 94.5L202.5 94.5L283.5 13.5L310.5 13.5L580.5 283.5L580.5 337.5"
         stroke-width="4.5"
         stroke="rgba(243, 243, 243, 1)"
         id="path12"
         style="stroke:#f2f2f2" />
      <path
         d="M114.75 94.5 a6.75 6.75 0 1 0 13.5 0 a6.75 6.75 0 1 0 -13.5 0zM573.75 337.5 a6.75 6.75 0 1 0 13.5 0 a6.75 6.75 0 1 0 -13.5 0z"
         fill="rgba(243, 243, 243, 1)"
         id="path14"
         style="stroke:#f2f2f2" />
      <path
         d="M1174.5 13.5L742.5 13.5L661.5 94.5"
         stroke-width="4.5"
         stroke="rgba(243, 243, 243, 1)"
         id="path16"
         style="stroke:#f2f2f2" />
      <path
         d="M1167.75 13.5 a6.75 6.75 0 1 0 13.5 0 a6.75 6.75 0 1 0 -13.5 0zM654.75 94.5 a6.75 6.75 0 1 0 13.5 0 a6.75 6.75 0 1 0 -13.5 0z"
         fill="rgba(243, 243, 243, 1)"
         id="path18"
         style="stroke:#f2f2f2" />
      <path
         d="M256.5 472.5L94.5 472.5L13.5 391.5L13.5 121.5"
         stroke-width="4.5"
         stroke="rgba(243, 243, 243, 1)"
         id="path20"
         style="stroke:#f2f2f2" />
      <path
         d="M249.75 472.5 a6.75 6.75 0 1 0 13.5 0 a6.75 6.75 0 1 0 -13.5 0zM6.75 121.5 a6.75 6.75 0 1 0 13.5 0 a6.75 6.75 0 1 0 -13.5 0z"
         fill="rgba(243, 243, 243, 1)"
         id="path22"
         style="stroke:#f2f2f2" />
      <path
         d="M607.5 229.5L823.5 445.5L823.5 472.5L769.5 526.5L715.5 526.5L634.5 445.5L634.5 364.5"
         stroke-width="4.5"
         stroke="rgba(243, 243, 243, 1)"
         id="path24"
         style="stroke:#f2f2f2" />
      <path
         d="M600.75 229.5 a6.75 6.75 0 1 0 13.5 0 a6.75 6.75 0 1 0 -13.5 0zM627.75 364.5 a6.75 6.75 0 1 0 13.5 0 a6.75 6.75 0 1 0 -13.5 0z"
         fill="rgba(243, 243, 243, 1)"
         id="path26"
         style="stroke:#f2f2f2" />
      <path
         d="M1039.5 553.5L1039.5 499.5L1120.5 418.5L1444.5 418.5"
         stroke-width="4.5"
         stroke="rgba(243, 243, 243, 1)"
         id="path28"
         style="stroke:#f2f2f2" />
      <path
         d="M1032.75 553.5 a6.75 6.75 0 1 0 13.5 0 a6.75 6.75 0 1 0 -13.5 0zM1437.75 418.5 a6.75 6.75 0 1 0 13.5 0 a6.75 6.75 0 1 0 -13.5 0z"
         fill="rgba(243, 243, 243, 1)"
         id="path30"
         style="stroke:#f2f2f2" />
      <path
         d="M175.5 526.5L148.5 526.5L121.5 499.5"
         stroke-width="4.5"
         stroke="rgba(243, 243, 243, 1)"
         id="path32"
         style="stroke:#f2f2f2" />
      <path
         d="M168.75 526.5 a6.75 6.75 0 1 0 13.5 0 a6.75 6.75 0 1 0 -13.5 0zM114.75 499.5 a6.75 6.75 0 1 0 13.5 0 a6.75 6.75 0 1 0 -13.5 0z"
         fill="rgba(243, 243, 243, 1)"
         id="path34"
         style="stroke:#f2f2f2" />
      <path
         d="M580.5 40.5L580.5 148.5L526.5 202.5"
         stroke-width="4.5"
         stroke="rgba(243, 243, 243, 1)"
         id="path36"
         style="stroke:#f2f2f2" />
      <path
         d="M573.75 40.5 a6.75 6.75 0 1 0 13.5 0 a6.75 6.75 0 1 0 -13.5 0zM519.75 202.5 a6.75 6.75 0 1 0 13.5 0 a6.75 6.75 0 1 0 -13.5 0z"
         fill="rgba(243, 243, 243, 1)"
         id="path38"
         style="stroke:#f2f2f2" />
      <path
         d="M364.5 418.5L364.5 526.5"
         stroke-width="4.5"
         stroke="rgba(243, 243, 243, 1)"
         id="path40"
         style="stroke:#f2f2f2" />
      <path
         d="M357.75 418.5 a6.75 6.75 0 1 0 13.5 0 a6.75 6.75 0 1 0 -13.5 0zM357.75 526.5 a6.75 6.75 0 1 0 13.5 0 a6.75 6.75 0 1 0 -13.5 0z"
         fill="rgba(243, 243, 243, 1)"
         id="path42"
         style="stroke:#f2f2f2" />
      <path
         d="M823.5 418.5L823.5 283.5L688.5 148.5L688.5 94.5L742.5 40.5L877.5 40.5"
         stroke-width="4.5"
         stroke="rgba(243, 243, 243, 1)"
         id="path44"
         style="stroke:#f2f2f2" />
      <path
         d="M816.75 418.5 a6.75 6.75 0 1 0 13.5 0 a6.75 6.75 0 1 0 -13.5 0zM870.75 40.5 a6.75 6.75 0 1 0 13.5 0 a6.75 6.75 0 1 0 -13.5 0z"
         fill="rgba(243, 243, 243, 1)"
         id="path46"
         style="stroke:#f2f2f2" />
      <path
         d="M985.5 526.5L958.5 553.5L796.5 553.5"
         stroke-width="4.5"
         stroke="rgba(243, 243, 243, 1)"
         id="path48"
         style="stroke:#f2f2f2" />
      <path
         d="M978.75 526.5 a6.75 6.75 0 1 0 13.5 0 a6.75 6.75 0 1 0 -13.5 0zM789.75 553.5 a6.75 6.75 0 1 0 13.5 0 a6.75 6.75 0 1 0 -13.5 0z"
         fill="rgba(243, 243, 243, 1)"
         id="path50"
         style="stroke:#f2f2f2" />
      <path
         d="M661.5 175.5L634.5 202.5L580.5 202.5L553.5 229.5"
         stroke-width="4.5"
         stroke="rgba(243, 243, 243, 1)"
         id="path52"
         style="stroke:#f2f2f2" />
      <path
         d="M654.75 175.5 a6.75 6.75 0 1 0 13.5 0 a6.75 6.75 0 1 0 -13.5 0zM546.75 229.5 a6.75 6.75 0 1 0 13.5 0 a6.75 6.75 0 1 0 -13.5 0z"
         fill="rgba(243, 243, 243, 1)"
         id="path54"
         style="stroke:#f2f2f2" />
      <path
         d="M580.5 472.5L607.5 445.5L607.5 256.5L580.5 229.5"
         stroke-width="4.5"
         stroke="rgba(243, 243, 243, 1)"
         id="path56"
         style="stroke:#f2f2f2" />
      <path
         d="M573.75 472.5 a6.75 6.75 0 1 0 13.5 0 a6.75 6.75 0 1 0 -13.5 0zM573.75 229.5 a6.75 6.75 0 1 0 13.5 0 a6.75 6.75 0 1 0 -13.5 0z"
         fill="rgba(243, 243, 243, 1)"
         id="path58"
         style="stroke:#f2f2f2" />
      <path
         d="M1417.5 229.5L1228.5 40.5L1228.5 13.5"
         stroke-width="4.5"
         stroke="rgba(243, 243, 243, 1)"
         id="path60"
         style="stroke:#f2f2f2" />
      <path
         d="M1410.75 229.5 a6.75 6.75 0 1 0 13.5 0 a6.75 6.75 0 1 0 -13.5 0zM1221.75 13.5 a6.75 6.75 0 1 0 13.5 0 a6.75 6.75 0 1 0 -13.5 0z"
         fill="rgba(243, 243, 243, 1)"
         id="path62"
         style="stroke:#f2f2f2" />
      <path
         d="M1255.5 499.5L1201.5 553.5L1066.5 553.5"
         stroke-width="4.5"
         stroke="rgba(243, 243, 243, 1)"
         id="path64"
         style="stroke:#f2f2f2" />
      <path
         d="M1248.75 499.5 a6.75 6.75 0 1 0 13.5 0 a6.75 6.75 0 1 0 -13.5 0zM1059.75 553.5 a6.75 6.75 0 1 0 13.5 0 a6.75 6.75 0 1 0 -13.5 0z"
         fill="rgba(243, 243, 243, 1)"
         id="path66"
         style="stroke:#f2f2f2" />
      <path
         d="M256.5 175.5L229.5 175.5L40.5 364.5L40.5 391.5L94.5 445.5L256.5 445.5L310.5 499.5"
         stroke-width="4.5"
         stroke="rgba(243, 243, 243, 1)"
         id="path68"
         style="stroke:#f2f2f2" />
      <path
         d="M249.75 175.5 a6.75 6.75 0 1 0 13.5 0 a6.75 6.75 0 1 0 -13.5 0zM303.75 499.5 a6.75 6.75 0 1 0 13.5 0 a6.75 6.75 0 1 0 -13.5 0z"
         fill="rgba(243, 243, 243, 1)"
         id="path70"
         style="stroke:#f2f2f2" />
      <path
         d="M148.5 175.5L148.5 229.5L40.5 337.5"
         stroke-width="4.5"
         stroke="rgba(243, 243, 243, 1)"
         id="path72"
         style="stroke:#f2f2f2" />
      <path
         d="M141.75 175.5 a6.75 6.75 0 1 0 13.5 0 a6.75 6.75 0 1 0 -13.5 0zM33.75 337.5 a6.75 6.75 0 1 0 13.5 0 a6.75 6.75 0 1 0 -13.5 0z"
         fill="rgba(243, 243, 243, 1)"
         id="path74"
         style="stroke:#f2f2f2" />
      <path
         d="M1417.5 148.5L1417.5 202.5L1444.5 229.5L1444.5 391.5"
         stroke-width="4.5"
         stroke="rgba(243, 243, 243, 1)"
         id="path76"
         style="stroke:#f2f2f2" />
      <path
         d="M1410.75 148.5 a6.75 6.75 0 1 0 13.5 0 a6.75 6.75 0 1 0 -13.5 0zM1437.75 391.5 a6.75 6.75 0 1 0 13.5 0 a6.75 6.75 0 1 0 -13.5 0z"
         fill="rgba(243, 243, 243, 1)"
         id="path78"
         style="stroke:#f2f2f2" />
      <path
         d="M1336.5 202.5L1174.5 40.5L1066.5 40.5L904.5 202.5L823.5 202.5"
         stroke-width="4.5"
         stroke="rgba(243, 243, 243, 1)"
         id="path80"
         style="stroke:#f2f2f2" />
      <path
         d="M1329.75 202.5 a6.75 6.75 0 1 0 13.5 0 a6.75 6.75 0 1 0 -13.5 0zM816.75 202.5 a6.75 6.75 0 1 0 13.5 0 a6.75 6.75 0 1 0 -13.5 0z"
         fill="rgba(243, 243, 243, 1)"
         id="path82"
         style="stroke:#f2f2f2" />
      <path
         d="M1309.5 364.5L1417.5 256.5"
         stroke-width="4.5"
         stroke="rgba(243, 243, 243, 1)"
         id="path84"
         style="stroke:#f2f2f2" />
      <path
         d="M1302.75 364.5 a6.75 6.75 0 1 0 13.5 0 a6.75 6.75 0 1 0 -13.5 0zM1410.75 256.5 a6.75 6.75 0 1 0 13.5 0 a6.75 6.75 0 1 0 -13.5 0z"
         fill="rgba(243, 243, 243, 1)"
         id="path86"
         style="stroke:#f2f2f2" />
      <path
         d="M1120.5 67.5L1066.5 67.5L1012.5 121.5"
         stroke-width="4.5"
         stroke="rgba(243, 243, 243, 1)"
         id="path88"
         style="stroke:#f2f2f2" />
      <path
         d="M1113.75 67.5 a6.75 6.75 0 1 0 13.5 0 a6.75 6.75 0 1 0 -13.5 0zM1005.75 121.5 a6.75 6.75 0 1 0 13.5 0 a6.75 6.75 0 1 0 -13.5 0z"
         fill="rgba(243, 243, 243, 1)"
         id="path90"
         style="stroke:#f2f2f2" />
      <path
         d="M364.5 283.5L418.5 283.5L580.5 445.5"
         stroke-width="4.5"
         stroke="rgba(243, 243, 243, 1)"
         id="path92"
         style="stroke:#f2f2f2" />
      <path
         d="M357.75 283.5 a6.75 6.75 0 1 0 13.5 0 a6.75 6.75 0 1 0 -13.5 0zM573.75 445.5 a6.75 6.75 0 1 0 13.5 0 a6.75 6.75 0 1 0 -13.5 0z"
         fill="rgba(243, 243, 243, 1)"
         id="path94"
         style="stroke:#f2f2f2" />
      <path
         d="M1309.5 310.5L1336.5 310.5L1390.5 256.5L1390.5 229.5L1363.5 202.5"
         stroke-width="4.5"
         stroke="rgba(243, 243, 243, 1)"
         id="path96"
         style="stroke:#f2f2f2" />
      <path
         d="M1302.75 310.5 a6.75 6.75 0 1 0 13.5 0 a6.75 6.75 0 1 0 -13.5 0zM1356.75 202.5 a6.75 6.75 0 1 0 13.5 0 a6.75 6.75 0 1 0 -13.5 0z"
         fill="rgba(243, 243, 243, 1)"
         id="path98"
         style="stroke:#f2f2f2" />
      <path
         d="M715.5 499.5L769.5 445.5L796.5 445.5"
         stroke-width="4.5"
         stroke="rgba(243, 243, 243, 1)"
         id="path100"
         style="stroke:#f2f2f2" />
      <path
         d="M708.75 499.5 a6.75 6.75 0 1 0 13.5 0 a6.75 6.75 0 1 0 -13.5 0zM789.75 445.5 a6.75 6.75 0 1 0 13.5 0 a6.75 6.75 0 1 0 -13.5 0z"
         fill="rgba(243, 243, 243, 1)"
         id="path102"
         style="stroke:#f2f2f2" />
      <path
         d="M634.5 121.5L634.5 175.5"
         stroke-width="4.5"
         stroke="rgba(243, 243, 243, 1)"
         id="path104"
         style="stroke:#f2f2f2" />
      <path
         d="M627.75 121.5 a6.75 6.75 0 1 0 13.5 0 a6.75 6.75 0 1 0 -13.5 0zM627.75 175.5 a6.75 6.75 0 1 0 13.5 0 a6.75 6.75 0 1 0 -13.5 0z"
         fill="rgba(243, 243, 243, 1)"
         id="path106"
         style="stroke:#f2f2f2" />
      <path
         d="M94.5 175.5L121.5 175.5L175.5 121.5L202.5 121.5L283.5 40.5L310.5 40.5L553.5 283.5L553.5 337.5"
         stroke-width="4.5"
         stroke="rgba(243, 243, 243, 1)"
         id="path108"
         style="stroke:#f2f2f2" />
      <path
         d="M87.75 175.5 a6.75 6.75 0 1 0 13.5 0 a6.75 6.75 0 1 0 -13.5 0zM546.75 337.5 a6.75 6.75 0 1 0 13.5 0 a6.75 6.75 0 1 0 -13.5 0z"
         fill="rgba(243, 243, 243, 1)"
         id="path110"
         style="stroke:#f2f2f2" />
      <path
         d="M1093.5 202.5L1093.5 337.5L1039.5 391.5L958.5 391.5L904.5 445.5L904.5 499.5L931.5 526.5L958.5 526.5L1039.5 445.5"
         stroke-width="4.5"
         stroke="rgba(243, 243, 243, 1)"
         id="path112"
         style="stroke:#f2f2f2" />
      <path
         d="M1086.75 202.5 a6.75 6.75 0 1 0 13.5 0 a6.75 6.75 0 1 0 -13.5 0zM1032.75 445.5 a6.75 6.75 0 1 0 13.5 0 a6.75 6.75 0 1 0 -13.5 0z"
         fill="rgba(243, 243, 243, 1)"
         id="path114"
         style="stroke:#f2f2f2" />
      <path
         d="M391.5 391.5L391.5 310.5"
         stroke-width="4.5"
         stroke="rgba(243, 243, 243, 1)"
         id="path116"
         style="stroke:#f2f2f2" />
      <path
         d="M384.75 391.5 a6.75 6.75 0 1 0 13.5 0 a6.75 6.75 0 1 0 -13.5 0zM384.75 310.5 a6.75 6.75 0 1 0 13.5 0 a6.75 6.75 0 1 0 -13.5 0z"
         fill="rgba(243, 243, 243, 1)"
         id="path118"
         style="stroke:#f2f2f2" />
      <path
         d="M1093.5 94.5L1093.5 175.5L1039.5 229.5L1039.5 310.5L985.5 364.5"
         stroke-width="4.5"
         stroke="rgba(243, 243, 243, 1)"
         id="path120"
         style="stroke:#f2f2f2" />
      <path
         d="M1086.75 94.5 a6.75 6.75 0 1 0 13.5 0 a6.75 6.75 0 1 0 -13.5 0zM978.75 364.5 a6.75 6.75 0 1 0 13.5 0 a6.75 6.75 0 1 0 -13.5 0z"
         fill="rgba(243, 243, 243, 1)"
         id="path122"
         style="stroke:#f2f2f2" />
      <path
         d="M1363.5 40.5L1363.5 67.5L1336.5 94.5L1336.5 121.5L1390.5 175.5"
         stroke-width="4.5"
         stroke="rgba(243, 243, 243, 1)"
         id="path124"
         style="stroke:#f2f2f2" />
      <path
         d="M1356.75 40.5 a6.75 6.75 0 1 0 13.5 0 a6.75 6.75 0 1 0 -13.5 0zM1383.75 175.5 a6.75 6.75 0 1 0 13.5 0 a6.75 6.75 0 1 0 -13.5 0z"
         fill="rgba(243, 243, 243, 1)"
         id="path126"
         style="stroke:#f2f2f2" />
      <path
         d="M1174.5 364.5L1147.5 391.5L1066.5 391.5L958.5 499.5L931.5 499.5"
         stroke-width="4.5"
         stroke="rgba(243, 243, 243, 1)"
         id="path128"
         style="stroke:#f2f2f2" />
      <path
         d="M1167.75 364.5 a6.75 6.75 0 1 0 13.5 0 a6.75 6.75 0 1 0 -13.5 0zM924.75 499.5 a6.75 6.75 0 1 0 13.5 0 a6.75 6.75 0 1 0 -13.5 0z"
         fill="rgba(243, 243, 243, 1)"
         id="path130"
         style="stroke:#f2f2f2" />
      <path
         d="M742.5 229.5L688.5 175.5"
         stroke-width="4.5"
         stroke="rgba(243, 243, 243, 1)"
         id="path132"
         style="stroke:#f2f2f2" />
      <path
         d="M735.75 229.5 a6.75 6.75 0 1 0 13.5 0 a6.75 6.75 0 1 0 -13.5 0zM681.75 175.5 a6.75 6.75 0 1 0 13.5 0 a6.75 6.75 0 1 0 -13.5 0z"
         fill="rgba(243, 243, 243, 1)"
         id="path134"
         style="stroke:#f2f2f2" />
      <path
         d="M580.5 553.5L580.5 526.5L634.5 472.5"
         stroke-width="4.5"
         stroke="rgba(243, 243, 243, 1)"
         id="path136"
         style="stroke:#f2f2f2" />
      <path
         d="M573.75 553.5 a6.75 6.75 0 1 0 13.5 0 a6.75 6.75 0 1 0 -13.5 0zM627.75 472.5 a6.75 6.75 0 1 0 13.5 0 a6.75 6.75 0 1 0 -13.5 0z"
         fill="rgba(243, 243, 243, 1)"
         id="path138"
         style="stroke:#f2f2f2" />
      <path
         d="M1255.5 553.5L1444.5 553.5"
         stroke-width="4.5"
         stroke="rgba(243, 243, 243, 1)"
         id="path140"
         style="stroke:#f2f2f2" />
      <path
         d="M1248.75 553.5 a6.75 6.75 0 1 0 13.5 0 a6.75 6.75 0 1 0 -13.5 0zM1437.75 553.5 a6.75 6.75 0 1 0 13.5 0 a6.75 6.75 0 1 0 -13.5 0z"
         fill="rgba(243, 243, 243, 1)"
         id="path142"
         style="stroke:#f2f2f2" />
      <path
         d="M1066.5 526.5L1201.5 526.5L1282.5 445.5L1336.5 445.5L1417.5 526.5L1444.5 526.5"
         stroke-width="4.5"
         stroke="rgba(243, 243, 243, 1)"
         id="path144"
         style="stroke:#f2f2f2" />
      <path
         d="M1059.75 526.5 a6.75 6.75 0 1 0 13.5 0 a6.75 6.75 0 1 0 -13.5 0zM1437.75 526.5 a6.75 6.75 0 1 0 13.5 0 a6.75 6.75 0 1 0 -13.5 0z"
         fill="rgba(243, 243, 243, 1)"
         id="path146"
         style="stroke:#f2f2f2" />
      <path
         d="M229.5 526.5L337.5 526.5"
         stroke-width="4.5"
         stroke="rgba(243, 243, 243, 1)"
         id="path148"
         style="stroke:#f2f2f2" />
      <path
         d="M222.75 526.5 a6.75 6.75 0 1 0 13.5 0 a6.75 6.75 0 1 0 -13.5 0zM330.75 526.5 a6.75 6.75 0 1 0 13.5 0 a6.75 6.75 0 1 0 -13.5 0z"
         fill="rgba(243, 243, 243, 1)"
         id="path150"
         style="stroke:#f2f2f2" />
      <path
         d="M877.5 337.5L850.5 310.5L850.5 283.5L715.5 148.5L715.5 94.5L742.5 67.5L985.5 67.5"
         stroke-width="4.5"
         stroke="rgba(243, 243, 243, 1)"
         id="path152"
         style="stroke:#f2f2f2" />
      <path
         d="M870.75 337.5 a6.75 6.75 0 1 0 13.5 0 a6.75 6.75 0 1 0 -13.5 0zM978.75 67.5 a6.75 6.75 0 1 0 13.5 0 a6.75 6.75 0 1 0 -13.5 0z"
         fill="rgba(243, 243, 243, 1)"
         id="path154"
         style="stroke:#f2f2f2" />
      <path
         d="M1255.5 202.5L1255.5 364.5L1282.5 391.5L1417.5 391.5"
         stroke-width="4.5"
         stroke="rgba(243, 243, 243, 1)"
         id="path156"
         style="stroke:#f2f2f2" />
      <path
         d="M1248.75 202.5 a6.75 6.75 0 1 0 13.5 0 a6.75 6.75 0 1 0 -13.5 0zM1410.75 391.5 a6.75 6.75 0 1 0 13.5 0 a6.75 6.75 0 1 0 -13.5 0z"
         fill="rgba(243, 243, 243, 1)"
         id="path158"
         style="stroke:#f2f2f2" />
      <path
         d="M40.5 553.5L40.5 472.5"
         stroke-width="4.5"
         stroke="rgba(243, 243, 243, 1)"
         id="path160"
         style="stroke:#f2f2f2" />
      <path
         d="M33.75 553.5 a6.75 6.75 0 1 0 13.5 0 a6.75 6.75 0 1 0 -13.5 0zM33.75 472.5 a6.75 6.75 0 1 0 13.5 0 a6.75 6.75 0 1 0 -13.5 0z"
         fill="rgba(243, 243, 243, 1)"
         id="path162"
         style="stroke:#f2f2f2" />
      <path
         d="M661.5 418.5L769.5 418.5"
         stroke-width="4.5"
         stroke="rgba(243, 243, 243, 1)"
         id="path164"
         style="stroke:#f2f2f2" />
      <path
         d="M654.75 418.5 a6.75 6.75 0 1 0 13.5 0 a6.75 6.75 0 1 0 -13.5 0zM762.75 418.5 a6.75 6.75 0 1 0 13.5 0 a6.75 6.75 0 1 0 -13.5 0z"
         fill="rgba(243, 243, 243, 1)"
         id="path166"
         style="stroke:#f2f2f2" />
      <path
         d="M1282.5 283.5L1282.5 364.5"
         stroke-width="4.5"
         stroke="rgba(243, 243, 243, 1)"
         id="path168"
         style="stroke:#f2f2f2" />
      <path
         d="M1275.75 283.5 a6.75 6.75 0 1 0 13.5 0 a6.75 6.75 0 1 0 -13.5 0zM1275.75 364.5 a6.75 6.75 0 1 0 13.5 0 a6.75 6.75 0 1 0 -13.5 0z"
         fill="rgba(243, 243, 243, 1)"
         id="path170"
         style="stroke:#f2f2f2" />
      <path
         d="M877.5 256.5L850.5 256.5L823.5 229.5"
         stroke-width="4.5"
         stroke="rgba(243, 243, 243, 1)"
         id="path172"
         style="stroke:#f2f2f2" />
      <path
         d="M870.75 256.5 a6.75 6.75 0 1 0 13.5 0 a6.75 6.75 0 1 0 -13.5 0zM816.75 229.5 a6.75 6.75 0 1 0 13.5 0 a6.75 6.75 0 1 0 -13.5 0z"
         fill="rgba(243, 243, 243, 1)"
         id="path174"
         style="stroke:#f2f2f2" />
      <path
         d="M364.5 121.5L310.5 67.5L283.5 67.5L175.5 175.5L175.5 202.5"
         stroke-width="4.5"
         stroke="rgba(243, 243, 243, 1)"
         id="path176"
         style="stroke:#f2f2f2" />
      <path
         d="M357.75 121.5 a6.75 6.75 0 1 0 13.5 0 a6.75 6.75 0 1 0 -13.5 0zM168.75 202.5 a6.75 6.75 0 1 0 13.5 0 a6.75 6.75 0 1 0 -13.5 0z"
         fill="rgba(243, 243, 243, 1)"
         id="path178"
         style="stroke:#f2f2f2" />
      <path
         d="M283.5 202.5L337.5 148.5L337.5 121.5L310.5 94.5L283.5 94.5L229.5 148.5"
         stroke-width="4.5"
         stroke="rgba(243, 243, 243, 1)"
         id="path180"
         style="stroke:#f2f2f2" />
      <path
         d="M276.75 202.5 a6.75 6.75 0 1 0 13.5 0 a6.75 6.75 0 1 0 -13.5 0zM222.75 148.5 a6.75 6.75 0 1 0 13.5 0 a6.75 6.75 0 1 0 -13.5 0z"
         fill="rgba(243, 243, 243, 1)"
         id="path182"
         style="stroke:#f2f2f2" />
      <path
         d="M958.5 175.5L958.5 337.5L850.5 445.5"
         stroke-width="4.5"
         stroke="rgba(243, 243, 243, 1)"
         id="path184"
         style="stroke:#f2f2f2" />
      <path
         d="M951.75 175.5 a6.75 6.75 0 1 0 13.5 0 a6.75 6.75 0 1 0 -13.5 0zM843.75 445.5 a6.75 6.75 0 1 0 13.5 0 a6.75 6.75 0 1 0 -13.5 0z"
         fill="rgba(243, 243, 243, 1)"
         id="path186"
         style="stroke:#f2f2f2" />
      <path
         d="M202.5 256.5L202.5 364.5L337.5 499.5"
         stroke-width="4.5"
         stroke="rgba(243, 243, 243, 1)"
         id="path188"
         style="stroke:#f2f2f2" />
      <path
         d="M195.75 256.5 a6.75 6.75 0 1 0 13.5 0 a6.75 6.75 0 1 0 -13.5 0zM330.75 499.5 a6.75 6.75 0 1 0 13.5 0 a6.75 6.75 0 1 0 -13.5 0z"
         fill="rgba(243, 243, 243, 1)"
         id="path190"
         style="stroke:#f2f2f2" />
      <path
         d="M13.5 94.5L94.5 13.5L256.5 13.5"
         stroke-width="4.5"
         stroke="rgba(243, 243, 243, 1)"
         id="path192"
         style="stroke:#f2f2f2" />
      <path
         d="M6.75 94.5 a6.75 6.75 0 1 0 13.5 0 a6.75 6.75 0 1 0 -13.5 0zM249.75 13.5 a6.75 6.75 0 1 0 13.5 0 a6.75 6.75 0 1 0 -13.5 0z"
         fill="rgba(243, 243, 243, 1)"
         id="path194"
         style="stroke:#f2f2f2" />
      <path
         d="M310.5 337.5L202.5 229.5"
         stroke-width="4.5"
         stroke="rgba(243, 243, 243, 1)"
         id="path196"
         style="stroke:#f2f2f2" />
      <path
         d="M303.75 337.5 a6.75 6.75 0 1 0 13.5 0 a6.75 6.75 0 1 0 -13.5 0zM195.75 229.5 a6.75 6.75 0 1 0 13.5 0 a6.75 6.75 0 1 0 -13.5 0z"
         fill="rgba(243, 243, 243, 1)"
         id="path198"
         style="stroke:#f2f2f2" />
      <path
         d="M715.5 310.5L796.5 391.5"
         stroke-width="4.5"
         stroke="rgba(243, 243, 243, 1)"
         id="path200"
         style="stroke:#f2f2f2" />
      <path
         d="M708.75 310.5 a6.75 6.75 0 1 0 13.5 0 a6.75 6.75 0 1 0 -13.5 0zM789.75 391.5 a6.75 6.75 0 1 0 13.5 0 a6.75 6.75 0 1 0 -13.5 0z"
         fill="rgba(243, 243, 243, 1)"
         id="path202"
         style="stroke:#f2f2f2" />
      <path
         d="M418.5 499.5L445.5 472.5L445.5 418.5L472.5 391.5L499.5 391.5L553.5 445.5L553.5 499.5L526.5 526.5L391.5 526.5"
         stroke-width="4.5"
         stroke="rgba(243, 243, 243, 1)"
         id="path204"
         style="stroke:#f2f2f2" />
      <path
         d="M411.75 499.5 a6.75 6.75 0 1 0 13.5 0 a6.75 6.75 0 1 0 -13.5 0zM384.75 526.5 a6.75 6.75 0 1 0 13.5 0 a6.75 6.75 0 1 0 -13.5 0z"
         fill="rgba(243, 243, 243, 1)"
         id="path206"
         style="stroke:#f2f2f2" />
      <path
         d="M526.5 445.5L499.5 418.5L472.5 418.5"
         stroke-width="4.5"
         stroke="rgba(243, 243, 243, 1)"
         id="path208"
         style="stroke:#f2f2f2" />
      <path
         d="M519.75 445.5 a6.75 6.75 0 1 0 13.5 0 a6.75 6.75 0 1 0 -13.5 0zM465.75 418.5 a6.75 6.75 0 1 0 13.5 0 a6.75 6.75 0 1 0 -13.5 0z"
         fill="rgba(243, 243, 243, 1)"
         id="path210"
         style="stroke:#f2f2f2" />
      <path
         d="M1336.5 472.5L1390.5 526.5"
         stroke-width="4.5"
         stroke="rgba(243, 243, 243, 1)"
         id="path212"
         style="stroke:#f2f2f2" />
      <path
         d="M1329.75 472.5 a6.75 6.75 0 1 0 13.5 0 a6.75 6.75 0 1 0 -13.5 0zM1383.75 526.5 a6.75 6.75 0 1 0 13.5 0 a6.75 6.75 0 1 0 -13.5 0z"
         fill="rgba(243, 243, 243, 1)"
         id="path214"
         style="stroke:#f2f2f2" />
      <path
         d="M121.5 40.5L229.5 40.5"
         stroke-width="4.5"
         stroke="rgba(243, 243, 243, 1)"
         id="path216"
         style="stroke:#f2f2f2" />
      <path
         d="M114.75 40.5 a6.75 6.75 0 1 0 13.5 0 a6.75 6.75 0 1 0 -13.5 0zM222.75 40.5 a6.75 6.75 0 1 0 13.5 0 a6.75 6.75 0 1 0 -13.5 0z"
         fill="rgba(243, 243, 243, 1)"
         id="path218"
         style="stroke:#f2f2f2" />
      <path
         d="M526.5 310.5L472.5 310.5L364.5 202.5L310.5 202.5L256.5 256.5"
         stroke-width="4.5"
         stroke="rgba(243, 243, 243, 1)"
         id="path220"
         style="stroke:#f2f2f2" />
      <path
         d="M519.75 310.5 a6.75 6.75 0 1 0 13.5 0 a6.75 6.75 0 1 0 -13.5 0zM249.75 256.5 a6.75 6.75 0 1 0 13.5 0 a6.75 6.75 0 1 0 -13.5 0z"
         fill="rgba(243, 243, 243, 1)"
         id="path222"
         style="stroke:#f2f2f2" />
      <path
         d="M1147.5 202.5L1147.5 229.5L1120.5 256.5L1120.5 364.5"
         stroke-width="4.5"
         stroke="rgba(243, 243, 243, 1)"
         id="path224"
         style="stroke:#f2f2f2" />
      <path
         d="M1140.75 202.5 a6.75 6.75 0 1 0 13.5 0 a6.75 6.75 0 1 0 -13.5 0zM1113.75 364.5 a6.75 6.75 0 1 0 13.5 0 a6.75 6.75 0 1 0 -13.5 0z"
         fill="rgba(243, 243, 243, 1)"
         id="path226"
         style="stroke:#f2f2f2" />
      <path
         d="M310.5 283.5L337.5 283.5L364.5 310.5L364.5 391.5L310.5 445.5"
         stroke-width="4.5"
         stroke="rgba(243, 243, 243, 1)"
         id="path228"
         style="stroke:#f2f2f2" />
      <path
         d="M303.75 283.5 a6.75 6.75 0 1 0 13.5 0 a6.75 6.75 0 1 0 -13.5 0zM303.75 445.5 a6.75 6.75 0 1 0 13.5 0 a6.75 6.75 0 1 0 -13.5 0z"
         fill="rgba(243, 243, 243, 1)"
         id="path230"
         style="stroke:#f2f2f2" />
      <path
         d="M1201.5 175.5L1201.5 202.5L1228.5 229.5L1228.5 256.5L1147.5 337.5L1147.5 364.5"
         stroke-width="4.5"
         stroke="rgba(243, 243, 243, 1)"
         id="path232"
         style="stroke:#f2f2f2" />
      <path
         d="M1194.75 175.5 a6.75 6.75 0 1 0 13.5 0 a6.75 6.75 0 1 0 -13.5 0zM1140.75 364.5 a6.75 6.75 0 1 0 13.5 0 a6.75 6.75 0 1 0 -13.5 0z"
         fill="rgba(243, 243, 243, 1)"
         id="path234"
         style="stroke:#f2f2f2" />
      <path
         d="M850.5 94.5L742.5 94.5"
         stroke-width="4.5"
         stroke="rgba(243, 243, 243, 1)"
         id="path236"
         style="stroke:#f2f2f2" />
      <path
         d="M843.75 94.5 a6.75 6.75 0 1 0 13.5 0 a6.75 6.75 0 1 0 -13.5 0zM735.75 94.5 a6.75 6.75 0 1 0 13.5 0 a6.75 6.75 0 1 0 -13.5 0z"
         fill="rgba(243, 243, 243, 1)"
         id="path238"
         style="stroke:#f2f2f2" />
      <path
         d="M931.5 121.5L742.5 121.5"
         stroke-width="4.5"
         stroke="rgba(243, 243, 243, 1)"
         id="path240"
         style="stroke:#f2f2f2" />
      <path
         d="M924.75 121.5 a6.75 6.75 0 1 0 13.5 0 a6.75 6.75 0 1 0 -13.5 0zM735.75 121.5 a6.75 6.75 0 1 0 13.5 0 a6.75 6.75 0 1 0 -13.5 0z"
         fill="rgba(243, 243, 243, 1)"
         id="path242"
         style="stroke:#f2f2f2" />
      <path
         d="M526.5 175.5L526.5 13.5"
         stroke-width="4.5"
         stroke="rgba(243, 243, 243, 1)"
         id="path244"
         style="stroke:#f2f2f2" />
      <path
         d="M519.75 175.5 a6.75 6.75 0 1 0 13.5 0 a6.75 6.75 0 1 0 -13.5 0zM519.75 13.5 a6.75 6.75 0 1 0 13.5 0 a6.75 6.75 0 1 0 -13.5 0z"
         fill="rgba(243, 243, 243, 1)"
         id="path246"
         style="stroke:#f2f2f2" />
      <path
         d="M931.5 472.5L931.5 445.5L958.5 418.5L1012.5 418.5"
         stroke-width="4.5"
         stroke="rgba(243, 243, 243, 1)"
         id="path248"
         style="stroke:#f2f2f2" />
      <path
         d="M924.75 472.5 a6.75 6.75 0 1 0 13.5 0 a6.75 6.75 0 1 0 -13.5 0zM1005.75 418.5 a6.75 6.75 0 1 0 13.5 0 a6.75 6.75 0 1 0 -13.5 0z"
         fill="rgba(243, 243, 243, 1)"
         id="path250"
         style="stroke:#f2f2f2" />
      <path
         d="M1309.5 526.5L1282.5 499.5L1282.5 472.5"
         stroke-width="4.5"
         stroke="rgba(243, 243, 243, 1)"
         id="path252"
         style="stroke:#f2f2f2" />
      <path
         d="M1302.75 526.5 a6.75 6.75 0 1 0 13.5 0 a6.75 6.75 0 1 0 -13.5 0zM1275.75 472.5 a6.75 6.75 0 1 0 13.5 0 a6.75 6.75 0 1 0 -13.5 0z"
         fill="rgba(243, 243, 243, 1)"
         id="path254"
         style="stroke:#f2f2f2" />
      <path
         d="M445.5 13.5L499.5 67.5L499.5 175.5"
         stroke-width="4.5"
         stroke="rgba(243, 243, 243, 1)"
         id="path256"
         style="stroke:#f2f2f2" />
      <path
         d="M438.75 13.5 a6.75 6.75 0 1 0 13.5 0 a6.75 6.75 0 1 0 -13.5 0zM492.75 175.5 a6.75 6.75 0 1 0 13.5 0 a6.75 6.75 0 1 0 -13.5 0z"
         fill="rgba(243, 243, 243, 1)"
         id="path258"
         style="stroke:#f2f2f2" />
      <path
         d="M337.5 256.5L391.5 256.5"
         stroke-width="4.5"
         stroke="rgba(243, 243, 243, 1)"
         id="path260"
         style="stroke:#f2f2f2" />
      <path
         d="M330.75 256.5 a6.75 6.75 0 1 0 13.5 0 a6.75 6.75 0 1 0 -13.5 0zM384.75 256.5 a6.75 6.75 0 1 0 13.5 0 a6.75 6.75 0 1 0 -13.5 0z"
         fill="rgba(243, 243, 243, 1)"
         id="path262"
         style="stroke:#f2f2f2" />
      <path
         d="M661.5 256.5L688.5 229.5L715.5 229.5L742.5 256.5L769.5 256.5L796.5 283.5L796.5 310.5"
         stroke-width="4.5"
         stroke="rgba(243, 243, 243, 1)"
         id="path264"
         style="stroke:#f2f2f2" />
      <path
         d="M654.75 256.5 a6.75 6.75 0 1 0 13.5 0 a6.75 6.75 0 1 0 -13.5 0zM789.75 310.5 a6.75 6.75 0 1 0 13.5 0 a6.75 6.75 0 1 0 -13.5 0z"
         fill="rgba(243, 243, 243, 1)"
         id="path266"
         style="stroke:#f2f2f2" />
      <path
         d="M1039.5 121.5L1039.5 175.5"
         stroke-width="4.5"
         stroke="rgba(243, 243, 243, 1)"
         id="path268"
         style="stroke:#f2f2f2" />
      <path
         d="M1032.75 121.5 a6.75 6.75 0 1 0 13.5 0 a6.75 6.75 0 1 0 -13.5 0zM1032.75 175.5 a6.75 6.75 0 1 0 13.5 0 a6.75 6.75 0 1 0 -13.5 0z"
         fill="rgba(243, 243, 243, 1)"
         id="path270"
         style="stroke:#f2f2f2" />
      <path
         d="M391.5 418.5L391.5 472.5"
         stroke-width="4.5"
         stroke="rgba(243, 243, 243, 1)"
         id="path272"
         style="stroke:#f2f2f2" />
      <path
         d="M384.75 418.5 a6.75 6.75 0 1 0 13.5 0 a6.75 6.75 0 1 0 -13.5 0zM384.75 472.5 a6.75 6.75 0 1 0 13.5 0 a6.75 6.75 0 1 0 -13.5 0z"
         fill="rgba(243, 243, 243, 1)"
         id="path274"
         style="stroke:#f2f2f2" />
      <path
         d="M1417.5 40.5L1390.5 40.5L1363.5 13.5L1255.5 13.5"
         stroke-width="4.5"
         stroke="rgba(243, 243, 243, 1)"
         id="path276"
         style="stroke:#f2f2f2" />
      <path
         d="M1410.75 40.5 a6.75 6.75 0 1 0 13.5 0 a6.75 6.75 0 1 0 -13.5 0zM1248.75 13.5 a6.75 6.75 0 1 0 13.5 0 a6.75 6.75 0 1 0 -13.5 0z"
         fill="rgba(243, 243, 243, 1)"
         id="path278"
         style="stroke:#f2f2f2" />
      <path
         d="M1309.5 202.5L1309.5 229.5L1336.5 256.5L1336.5 283.5"
         stroke-width="4.5"
         stroke="rgba(243, 243, 243, 1)"
         id="path280"
         style="stroke:#f2f2f2" />
      <path
         d="M1302.75 202.5 a6.75 6.75 0 1 0 13.5 0 a6.75 6.75 0 1 0 -13.5 0zM1329.75 283.5 a6.75 6.75 0 1 0 13.5 0 a6.75 6.75 0 1 0 -13.5 0z"
         fill="rgba(243, 243, 243, 1)"
         id="path282"
         style="stroke:#f2f2f2" />
      <path
         d="M1147.5 175.5L1120.5 202.5L1120.5 229.5"
         stroke-width="4.5"
         stroke="rgba(243, 243, 243, 1)"
         id="path284"
         style="stroke:#f2f2f2" />
      <path
         d="M1140.75 175.5 a6.75 6.75 0 1 0 13.5 0 a6.75 6.75 0 1 0 -13.5 0zM1113.75 229.5 a6.75 6.75 0 1 0 13.5 0 a6.75 6.75 0 1 0 -13.5 0z"
         fill="rgba(243, 243, 243, 1)"
         id="path286"
         style="stroke:#f2f2f2" />
      <path
         d="M418.5 472.5L418.5 310.5"
         stroke-width="4.5"
         stroke="rgba(243, 243, 243, 1)"
         id="path288"
         style="stroke:#f2f2f2" />
      <path
         d="M411.75 472.5 a6.75 6.75 0 1 0 13.5 0 a6.75 6.75 0 1 0 -13.5 0zM411.75 310.5 a6.75 6.75 0 1 0 13.5 0 a6.75 6.75 0 1 0 -13.5 0z"
         fill="rgba(243, 243, 243, 1)"
         id="path290"
         style="stroke:#f2f2f2" />
      <path
         d="M1228.5 148.5L1120.5 148.5"
         stroke-width="4.5"
         stroke="rgba(243, 243, 243, 1)"
         id="path292"
         style="stroke:#f2f2f2" />
      <path
         d="M1221.75 148.5 a6.75 6.75 0 1 0 13.5 0 a6.75 6.75 0 1 0 -13.5 0zM1113.75 148.5 a6.75 6.75 0 1 0 13.5 0 a6.75 6.75 0 1 0 -13.5 0z"
         fill="rgba(243, 243, 243, 1)"
         id="path294"
         style="stroke:#f2f2f2" />
      <path
         d="M850.5 391.5L877.5 364.5L904.5 364.5L931.5 337.5L931.5 202.5"
         stroke-width="4.5"
         stroke="rgba(243, 243, 243, 1)"
         id="path296"
         style="stroke:#f2f2f2" />
      <path
         d="M843.75 391.5 a6.75 6.75 0 1 0 13.5 0 a6.75 6.75 0 1 0 -13.5 0zM924.75 202.5 a6.75 6.75 0 1 0 13.5 0 a6.75 6.75 0 1 0 -13.5 0z"
         fill="rgba(243, 243, 243, 1)"
         id="path298"
         style="stroke:#f2f2f2" />
      <path
         d="M553.5 40.5L553.5 148.5"
         stroke-width="4.5"
         stroke="rgba(243, 243, 243, 1)"
         id="path300"
         style="stroke:#f2f2f2" />
      <path
         d="M546.75 40.5 a6.75 6.75 0 1 0 13.5 0 a6.75 6.75 0 1 0 -13.5 0zM546.75 148.5 a6.75 6.75 0 1 0 13.5 0 a6.75 6.75 0 1 0 -13.5 0z"
         fill="rgba(243, 243, 243, 1)"
         id="path302"
         style="stroke:#f2f2f2" />
      <path
         d="M121.5 553.5L67.5 499.5"
         stroke-width="4.5"
         stroke="rgba(243, 243, 243, 1)"
         id="path304"
         style="stroke:#f2f2f2" />
      <path
         d="M114.75 553.5 a6.75 6.75 0 1 0 13.5 0 a6.75 6.75 0 1 0 -13.5 0zM60.75 499.5 a6.75 6.75 0 1 0 13.5 0 a6.75 6.75 0 1 0 -13.5 0z"
         fill="rgba(243, 243, 243, 1)"
         id="path306"
         style="stroke:#f2f2f2" />
      <path
         d="M634.5 40.5L661.5 13.5L715.5 13.5"
         stroke-width="4.5"
         stroke="rgba(243, 243, 243, 1)"
         id="path308"
         style="stroke:#f2f2f2" />
      <path
         d="M627.75 40.5 a6.75 6.75 0 1 0 13.5 0 a6.75 6.75 0 1 0 -13.5 0zM708.75 13.5 a6.75 6.75 0 1 0 13.5 0 a6.75 6.75 0 1 0 -13.5 0z"
         fill="rgba(243, 243, 243, 1)"
         id="path310"
         style="stroke:#f2f2f2" />
      <path
         d="M13.5 553.5L13.5 499.5"
         stroke-width="4.5"
         stroke="rgba(243, 243, 243, 1)"
         id="path312"
         style="stroke:#f2f2f2" />
      <path
         d="M6.75 553.5 a6.75 6.75 0 1 0 13.5 0 a6.75 6.75 0 1 0 -13.5 0zM6.75 499.5 a6.75 6.75 0 1 0 13.5 0 a6.75 6.75 0 1 0 -13.5 0z"
         fill="rgba(243, 243, 243, 1)"
         id="path314"
         style="stroke:#f2f2f2" />
      <path
         d="M472.5 283.5L472.5 229.5"
         stroke-width="4.5"
         stroke="rgba(243, 243, 243, 1)"
         id="path316"
         style="stroke:#f2f2f2" />
      <path
         d="M465.75 283.5 a6.75 6.75 0 1 0 13.5 0 a6.75 6.75 0 1 0 -13.5 0zM465.75 229.5 a6.75 6.75 0 1 0 13.5 0 a6.75 6.75 0 1 0 -13.5 0z"
         fill="rgba(243, 243, 243, 1)"
         id="path318"
         style="stroke:#f2f2f2" />
      <path
         d="M67.5 283.5L121.5 229.5L121.5 202.5"
         stroke-width="4.5"
         stroke="rgba(243, 243, 243, 1)"
         id="path320"
         style="stroke:#f2f2f2" />
      <path
         d="M60.75 283.5 a6.75 6.75 0 1 0 13.5 0 a6.75 6.75 0 1 0 -13.5 0zM114.75 202.5 a6.75 6.75 0 1 0 13.5 0 a6.75 6.75 0 1 0 -13.5 0z"
         fill="rgba(243, 243, 243, 1)"
         id="path322"
         style="stroke:#f2f2f2" />
      <path
         d="M1228.5 310.5L1201.5 310.5L1174.5 337.5"
         stroke-width="4.5"
         stroke="rgba(243, 243, 243, 1)"
         id="path324"
         style="stroke:#f2f2f2" />
      <path
         d="M1221.75 310.5 a6.75 6.75 0 1 0 13.5 0 a6.75 6.75 0 1 0 -13.5 0zM1167.75 337.5 a6.75 6.75 0 1 0 13.5 0 a6.75 6.75 0 1 0 -13.5 0z"
         fill="rgba(243, 243, 243, 1)"
         id="path326"
         style="stroke:#f2f2f2" />
      <path
         d="M175.5 499.5L283.5 499.5"
         stroke-width="4.5"
         stroke="rgba(243, 243, 243, 1)"
         id="path328"
         style="stroke:#f2f2f2" />
      <path
         d="M168.75 499.5 a6.75 6.75 0 1 0 13.5 0 a6.75 6.75 0 1 0 -13.5 0zM276.75 499.5 a6.75 6.75 0 1 0 13.5 0 a6.75 6.75 0 1 0 -13.5 0z"
         fill="rgba(243, 243, 243, 1)"
         id="path330"
         style="stroke:#f2f2f2" />
      <path
         d="M1174.5 499.5L1201.5 499.5L1255.5 445.5"
         stroke-width="4.5"
         stroke="rgba(243, 243, 243, 1)"
         id="path332"
         style="stroke:#f2f2f2" />
      <path
         d="M1167.75 499.5 a6.75 6.75 0 1 0 13.5 0 a6.75 6.75 0 1 0 -13.5 0zM1248.75 445.5 a6.75 6.75 0 1 0 13.5 0 a6.75 6.75 0 1 0 -13.5 0z"
         fill="rgba(243, 243, 243, 1)"
         id="path334"
         style="stroke:#f2f2f2" />
      <path
         d="M40.5 148.5L40.5 94.5L94.5 40.5"
         stroke-width="4.5"
         stroke="rgba(243, 243, 243, 1)"
         id="path336"
         style="stroke:#f2f2f2" />
      <path
         d="M33.75 148.5 a6.75 6.75 0 1 0 13.5 0 a6.75 6.75 0 1 0 -13.5 0zM87.75 40.5 a6.75 6.75 0 1 0 13.5 0 a6.75 6.75 0 1 0 -13.5 0z"
         fill="rgba(243, 243, 243, 1)"
         id="path338"
         style="stroke:#f2f2f2" />
      <path
         d="M607.5 175.5L607.5 94.5"
         stroke-width="4.5"
         stroke="rgba(243, 243, 243, 1)"
         id="path340"
         style="stroke:#f2f2f2" />
      <path
         d="M600.75 175.5 a6.75 6.75 0 1 0 13.5 0 a6.75 6.75 0 1 0 -13.5 0zM600.75 94.5 a6.75 6.75 0 1 0 13.5 0 a6.75 6.75 0 1 0 -13.5 0z"
         fill="rgba(243, 243, 243, 1)"
         id="path342"
         style="stroke:#f2f2f2" />
      <path
         d="M1417.5 364.5L1390.5 364.5L1363.5 337.5"
         stroke-width="4.5"
         stroke="rgba(243, 243, 243, 1)"
         id="path344"
         style="stroke:#f2f2f2" />
      <path
         d="M1410.75 364.5 a6.75 6.75 0 1 0 13.5 0 a6.75 6.75 0 1 0 -13.5 0zM1356.75 337.5 a6.75 6.75 0 1 0 13.5 0 a6.75 6.75 0 1 0 -13.5 0z"
         fill="rgba(243, 243, 243, 1)"
         id="path346"
         style="stroke:#f2f2f2" />
      <path
         d="M1147.5 310.5L1201.5 256.5L1201.5 229.5L1174.5 202.5L1174.5 175.5"
         stroke-width="4.5"
         stroke="rgba(243, 243, 243, 1)"
         id="path348"
         style="stroke:#f2f2f2" />
      <path
         d="M1140.75 310.5 a6.75 6.75 0 1 0 13.5 0 a6.75 6.75 0 1 0 -13.5 0zM1167.75 175.5 a6.75 6.75 0 1 0 13.5 0 a6.75 6.75 0 1 0 -13.5 0z"
         fill="rgba(243, 243, 243, 1)"
         id="path350"
         style="stroke:#f2f2f2" />
      <path
         d="M1444.5 148.5L1390.5 94.5L1390.5 67.5"
         stroke-width="4.5"
         stroke="rgba(243, 243, 243, 1)"
         id="path352"
         style="stroke:#f2f2f2" />
      <path
         d="M1437.75 148.5 a6.75 6.75 0 1 0 13.5 0 a6.75 6.75 0 1 0 -13.5 0zM1383.75 67.5 a6.75 6.75 0 1 0 13.5 0 a6.75 6.75 0 1 0 -13.5 0z"
         fill="rgba(243, 243, 243, 1)"
         id="path354"
         style="stroke:#f2f2f2" />
      <path
         d="M337.5 391.5L283.5 391.5"
         stroke-width="4.5"
         stroke="rgba(243, 243, 243, 1)"
         id="path356"
         style="stroke:#f2f2f2" />
      <path
         d="M330.75 391.5 a6.75 6.75 0 1 0 13.5 0 a6.75 6.75 0 1 0 -13.5 0zM276.75 391.5 a6.75 6.75 0 1 0 13.5 0 a6.75 6.75 0 1 0 -13.5 0z"
         fill="rgba(243, 243, 243, 1)"
         id="path358"
         style="stroke:#f2f2f2" />
      <path
         d="M1147.5 445.5L1228.5 445.5"
         stroke-width="4.5"
         stroke="rgba(243, 243, 243, 1)"
         id="path360"
         style="stroke:#f2f2f2" />
      <path
         d="M1140.75 445.5 a6.75 6.75 0 1 0 13.5 0 a6.75 6.75 0 1 0 -13.5 0zM1221.75 445.5 a6.75 6.75 0 1 0 13.5 0 a6.75 6.75 0 1 0 -13.5 0z"
         fill="rgba(243, 243, 243, 1)"
         id="path362"
         style="stroke:#f2f2f2" />
      <path
         d="M877.5 229.5L904.5 256.5L904.5 337.5"
         stroke-width="4.5"
         stroke="rgba(243, 243, 243, 1)"
         id="path364"
         style="stroke:#f2f2f2" />
      <path
         d="M870.75 229.5 a6.75 6.75 0 1 0 13.5 0 a6.75 6.75 0 1 0 -13.5 0zM897.75 337.5 a6.75 6.75 0 1 0 13.5 0 a6.75 6.75 0 1 0 -13.5 0z"
         fill="rgba(243, 243, 243, 1)"
         id="path366"
         style="stroke:#f2f2f2" />
      <path
         d="M1228.5 391.5L1201.5 364.5L1201.5 337.5"
         stroke-width="4.5"
         stroke="rgba(243, 243, 243, 1)"
         id="path368"
         style="stroke:#f2f2f2" />
      <path
         d="M1221.75 391.5 a6.75 6.75 0 1 0 13.5 0 a6.75 6.75 0 1 0 -13.5 0zM1194.75 337.5 a6.75 6.75 0 1 0 13.5 0 a6.75 6.75 0 1 0 -13.5 0z"
         fill="rgba(243, 243, 243, 1)"
         id="path370"
         style="stroke:#f2f2f2" />
      <path
         d="M67.5 391.5L67.5 364.5L94.5 337.5L175.5 337.5"
         stroke-width="4.5"
         stroke="rgba(243, 243, 243, 1)"
         id="path372"
         style="stroke:#f2f2f2" />
      <path
         d="M60.75 391.5 a6.75 6.75 0 1 0 13.5 0 a6.75 6.75 0 1 0 -13.5 0zM168.75 337.5 a6.75 6.75 0 1 0 13.5 0 a6.75 6.75 0 1 0 -13.5 0z"
         fill="rgba(243, 243, 243, 1)"
         id="path374"
         style="stroke:#f2f2f2" />
      <path
         d="M688.5 337.5L634.5 283.5"
         stroke-width="4.5"
         stroke="rgba(243, 243, 243, 1)"
         id="path376"
         style="stroke:#f2f2f2" />
      <path
         d="M681.75 337.5 a6.75 6.75 0 1 0 13.5 0 a6.75 6.75 0 1 0 -13.5 0zM627.75 283.5 a6.75 6.75 0 1 0 13.5 0 a6.75 6.75 0 1 0 -13.5 0z"
         fill="rgba(243, 243, 243, 1)"
         id="path378"
         style="stroke:#f2f2f2" />
      <path
         d="M499.5 499.5L472.5 472.5L472.5 445.5"
         stroke-width="4.5"
         stroke="rgba(243, 243, 243, 1)"
         id="path380"
         style="stroke:#f2f2f2" />
      <path
         d="M492.75 499.5 a6.75 6.75 0 1 0 13.5 0 a6.75 6.75 0 1 0 -13.5 0zM465.75 445.5 a6.75 6.75 0 1 0 13.5 0 a6.75 6.75 0 1 0 -13.5 0z"
         fill="rgba(243, 243, 243, 1)"
         id="path382"
         style="stroke:#f2f2f2" />
      <path
         d="M337.5 310.5L337.5 364.5"
         stroke-width="4.5"
         stroke="rgba(243, 243, 243, 1)"
         id="path384"
         style="stroke:#f2f2f2" />
      <path
         d="M330.75 310.5 a6.75 6.75 0 1 0 13.5 0 a6.75 6.75 0 1 0 -13.5 0zM330.75 364.5 a6.75 6.75 0 1 0 13.5 0 a6.75 6.75 0 1 0 -13.5 0z"
         fill="rgba(243, 243, 243, 1)"
         id="path386"
         style="stroke:#f2f2f2" />
      <path
         d="M1120.5 121.5L1174.5 67.5"
         stroke-width="4.5"
         stroke="rgba(243, 243, 243, 1)"
         id="path388"
         style="stroke:#f2f2f2" />
      <path
         d="M1113.75 121.5 a6.75 6.75 0 1 0 13.5 0 a6.75 6.75 0 1 0 -13.5 0zM1167.75 67.5 a6.75 6.75 0 1 0 13.5 0 a6.75 6.75 0 1 0 -13.5 0z"
         fill="rgba(243, 243, 243, 1)"
         id="path390"
         style="stroke:#f2f2f2" />
      <path
         d="M634.5 310.5L634.5 337.5L688.5 391.5L742.5 391.5"
         stroke-width="4.5"
         stroke="rgba(243, 243, 243, 1)"
         id="path392"
         style="stroke:#f2f2f2" />
      <path
         d="M627.75 310.5 a6.75 6.75 0 1 0 13.5 0 a6.75 6.75 0 1 0 -13.5 0zM735.75 391.5 a6.75 6.75 0 1 0 13.5 0 a6.75 6.75 0 1 0 -13.5 0z"
         fill="rgba(243, 243, 243, 1)"
         id="path394"
         style="stroke:#f2f2f2" />
      <path
         d="M661.5 445.5L742.5 445.5"
         stroke-width="4.5"
         stroke="rgba(243, 243, 243, 1)"
         id="path396"
         style="stroke:#f2f2f2" />
      <path
         d="M654.75 445.5 a6.75 6.75 0 1 0 13.5 0 a6.75 6.75 0 1 0 -13.5 0zM735.75 445.5 a6.75 6.75 0 1 0 13.5 0 a6.75 6.75 0 1 0 -13.5 0z"
         fill="rgba(243, 243, 243, 1)"
         id="path398"
         style="stroke:#f2f2f2" />
      <path
         d="M94.5 121.5L94.5 67.5"
         stroke-width="4.5"
         stroke="rgba(243, 243, 243, 1)"
         id="path400"
         style="stroke:#f2f2f2" />
      <path
         d="M87.75 121.5 a6.75 6.75 0 1 0 13.5 0 a6.75 6.75 0 1 0 -13.5 0zM87.75 67.5 a6.75 6.75 0 1 0 13.5 0 a6.75 6.75 0 1 0 -13.5 0z"
         fill="rgba(243, 243, 243, 1)"
         id="path402"
         style="stroke:#f2f2f2" />
      <path
         d="M121.5 364.5L94.5 391.5L94.5 418.5"
         stroke-width="4.5"
         stroke="rgba(243, 243, 243, 1)"
         id="path404"
         style="stroke:#f2f2f2" />
      <path
         d="M114.75 364.5 a6.75 6.75 0 1 0 13.5 0 a6.75 6.75 0 1 0 -13.5 0zM87.75 418.5 a6.75 6.75 0 1 0 13.5 0 a6.75 6.75 0 1 0 -13.5 0z"
         fill="rgba(243, 243, 243, 1)"
         id="path406"
         style="stroke:#f2f2f2" />
      <path
         d="M229.5 337.5L229.5 283.5"
         stroke-width="4.5"
         stroke="rgba(243, 243, 243, 1)"
         id="path408"
         style="stroke:#f2f2f2" />
      <path
         d="M222.75 337.5 a6.75 6.75 0 1 0 13.5 0 a6.75 6.75 0 1 0 -13.5 0zM222.75 283.5 a6.75 6.75 0 1 0 13.5 0 a6.75 6.75 0 1 0 -13.5 0z"
         fill="rgba(243, 243, 243, 1)"
         id="path410"
         style="stroke:#f2f2f2" />
      <path
         d="M94.5 202.5L94.5 229.5L40.5 283.5L40.5 310.5"
         stroke-width="4.5"
         stroke="rgba(243, 243, 243, 1)"
         id="path412"
         style="stroke:#f2f2f2" />
      <path
         d="M87.75 202.5 a6.75 6.75 0 1 0 13.5 0 a6.75 6.75 0 1 0 -13.5 0zM33.75 310.5 a6.75 6.75 0 1 0 13.5 0 a6.75 6.75 0 1 0 -13.5 0z"
         fill="rgba(243, 243, 243, 1)"
         id="path414"
         style="stroke:#f2f2f2" />
      <path
         d="M688.5 40.5L661.5 67.5L634.5 67.5"
         stroke-width="4.5"
         stroke="rgba(243, 243, 243, 1)"
         id="path416"
         style="stroke:#f2f2f2" />
      <path
         d="M681.75 40.5 a6.75 6.75 0 1 0 13.5 0 a6.75 6.75 0 1 0 -13.5 0zM627.75 67.5 a6.75 6.75 0 1 0 13.5 0 a6.75 6.75 0 1 0 -13.5 0z"
         fill="rgba(243, 243, 243, 1)"
         id="path418"
         style="stroke:#f2f2f2" />
      <path
         d="M67.5 94.5L67.5 175.5"
         stroke-width="4.5"
         stroke="rgba(243, 243, 243, 1)"
         id="path420"
         style="stroke:#f2f2f2" />
      <path
         d="M60.75 94.5 a6.75 6.75 0 1 0 13.5 0 a6.75 6.75 0 1 0 -13.5 0zM60.75 175.5 a6.75 6.75 0 1 0 13.5 0 a6.75 6.75 0 1 0 -13.5 0z"
         fill="rgba(243, 243, 243, 1)"
         id="path422"
         style="stroke:#f2f2f2" />
      <path
         d="M1282.5 67.5L1309.5 40.5L1336.5 40.5"
         stroke-width="4.5"
         stroke="rgba(243, 243, 243, 1)"
         id="path424"
         style="stroke:#f2f2f2" />
      <path
         d="M1275.75 67.5 a6.75 6.75 0 1 0 13.5 0 a6.75 6.75 0 1 0 -13.5 0zM1329.75 40.5 a6.75 6.75 0 1 0 13.5 0 a6.75 6.75 0 1 0 -13.5 0z"
         fill="rgba(243, 243, 243, 1)"
         id="path426"
         style="stroke:#f2f2f2" />
      <path
         d="M337.5 13.5L445.5 121.5"
         stroke-width="4.5"
         stroke="rgba(243, 243, 243, 1)"
         id="path428"
         style="stroke:#f2f2f2" />
      <path
         d="M330.75 13.5 a6.75 6.75 0 1 0 13.5 0 a6.75 6.75 0 1 0 -13.5 0zM438.75 121.5 a6.75 6.75 0 1 0 13.5 0 a6.75 6.75 0 1 0 -13.5 0z"
         fill="rgba(243, 243, 243, 1)"
         id="path430"
         style="stroke:#f2f2f2" />
      <path
         d="M688.5 283.5L769.5 283.5"
         stroke-width="4.5"
         stroke="rgba(243, 243, 243, 1)"
         id="path432"
         style="stroke:#f2f2f2" />
      <path
         d="M681.75 283.5 a6.75 6.75 0 1 0 13.5 0 a6.75 6.75 0 1 0 -13.5 0zM762.75 283.5 a6.75 6.75 0 1 0 13.5 0 a6.75 6.75 0 1 0 -13.5 0z"
         fill="rgba(243, 243, 243, 1)"
         id="path434"
         style="stroke:#f2f2f2" />
      <path
         d="M229.5 364.5L256.5 364.5L283.5 337.5"
         stroke-width="4.5"
         stroke="rgba(243, 243, 243, 1)"
         id="path436"
         style="stroke:#f2f2f2" />
      <path
         d="M222.75 364.5 a6.75 6.75 0 1 0 13.5 0 a6.75 6.75 0 1 0 -13.5 0zM276.75 337.5 a6.75 6.75 0 1 0 13.5 0 a6.75 6.75 0 1 0 -13.5 0z"
         fill="rgba(243, 243, 243, 1)"
         id="path438"
         style="stroke:#f2f2f2" />
      <path
         d="M1282.5 256.5L1282.5 175.5L1255.5 148.5"
         stroke-width="4.5"
         stroke="rgba(243, 243, 243, 1)"
         id="path440"
         style="stroke:#f2f2f2" />
      <path
         d="M1275.75 256.5 a6.75 6.75 0 1 0 13.5 0 a6.75 6.75 0 1 0 -13.5 0zM1248.75 148.5 a6.75 6.75 0 1 0 13.5 0 a6.75 6.75 0 1 0 -13.5 0z"
         fill="rgba(243, 243, 243, 1)"
         id="path442"
         style="stroke:#f2f2f2" />
      <path
         d="M67.5 13.5L13.5 67.5"
         stroke-width="4.5"
         stroke="rgba(243, 243, 243, 1)"
         id="path444"
         style="stroke:#f2f2f2" />
      <path
         d="M60.75 13.5 a6.75 6.75 0 1 0 13.5 0 a6.75 6.75 0 1 0 -13.5 0zM6.75 67.5 a6.75 6.75 0 1 0 13.5 0 a6.75 6.75 0 1 0 -13.5 0z"
         fill="rgba(243, 243, 243, 1)"
         id="path446"
         style="stroke:#f2f2f2" />
      <path
         d="M364.5 13.5L445.5 94.5L472.5 94.5"
         stroke-width="4.5"
         stroke="rgba(243, 243, 243, 1)"
         id="path448"
         style="stroke:#f2f2f2" />
      <path
         d="M357.75 13.5 a6.75 6.75 0 1 0 13.5 0 a6.75 6.75 0 1 0 -13.5 0zM465.75 94.5 a6.75 6.75 0 1 0 13.5 0 a6.75 6.75 0 1 0 -13.5 0z"
         fill="rgba(243, 243, 243, 1)"
         id="path450"
         style="stroke:#f2f2f2" />
      <path
         d="M1444.5 445.5L1363.5 445.5"
         stroke-width="4.5"
         stroke="rgba(243, 243, 243, 1)"
         id="path452"
         style="stroke:#f2f2f2" />
      <path
         d="M1437.75 445.5 a6.75 6.75 0 1 0 13.5 0 a6.75 6.75 0 1 0 -13.5 0zM1356.75 445.5 a6.75 6.75 0 1 0 13.5 0 a6.75 6.75 0 1 0 -13.5 0z"
         fill="rgba(243, 243, 243, 1)"
         id="path454"
         style="stroke:#f2f2f2" />
      <path
         d="M1066.5 310.5L1066.5 229.5"
         stroke-width="4.5"
         stroke="rgba(243, 243, 243, 1)"
         id="path456"
         style="stroke:#f2f2f2" />
      <path
         d="M1059.75 310.5 a6.75 6.75 0 1 0 13.5 0 a6.75 6.75 0 1 0 -13.5 0zM1059.75 229.5 a6.75 6.75 0 1 0 13.5 0 a6.75 6.75 0 1 0 -13.5 0z"
         fill="rgba(243, 243, 243, 1)"
         id="path458"
         style="stroke:#f2f2f2" />
      <path
         d="M877.5 148.5L931.5 148.5"
         stroke-width="4.5"
         stroke="rgba(243, 243, 243, 1)"
         id="path460"
         style="stroke:#f2f2f2" />
      <path
         d="M870.75 148.5 a6.75 6.75 0 1 0 13.5 0 a6.75 6.75 0 1 0 -13.5 0zM924.75 148.5 a6.75 6.75 0 1 0 13.5 0 a6.75 6.75 0 1 0 -13.5 0z"
         fill="rgba(243, 243, 243, 1)"
         id="path462"
         style="stroke:#f2f2f2" />
      <path
         d="M175.5 256.5L148.5 283.5L148.5 310.5"
         stroke-width="4.5"
         stroke="rgba(243, 243, 243, 1)"
         id="path464"
         style="stroke:#f2f2f2" />
      <path
         d="M168.75 256.5 a6.75 6.75 0 1 0 13.5 0 a6.75 6.75 0 1 0 -13.5 0zM141.75 310.5 a6.75 6.75 0 1 0 13.5 0 a6.75 6.75 0 1 0 -13.5 0z"
         fill="rgba(243, 243, 243, 1)"
         id="path466"
         style="stroke:#f2f2f2" />
      <path
         d="M445.5 67.5L445.5 40.5L418.5 13.5L391.5 13.5"
         stroke-width="4.5"
         stroke="rgba(243, 243, 243, 1)"
         id="path468"
         style="stroke:#f2f2f2" />
      <path
         d="M438.75 67.5 a6.75 6.75 0 1 0 13.5 0 a6.75 6.75 0 1 0 -13.5 0zM384.75 13.5 a6.75 6.75 0 1 0 13.5 0 a6.75 6.75 0 1 0 -13.5 0z"
         fill="rgba(243, 243, 243, 1)"
         id="path470"
         style="stroke:#f2f2f2" />
    </g>
  </g>
  <defs
     id="defs716">
    <mask
       id="SvgjsMask1058">
      <rect
         width="1440"
         height="560"
         fill="#ffffff"
         id="rect476" />
    </mask>
    <mask
       id="SvgjsMask1059">
      <rect
         width="1440"
         height="560"
         fill="white"
         id="rect479" />
      <path
         d="M1009.12 148.5 a3.38 3.38 0 1 0 6.76 0 a3.38 3.38 0 1 0 -6.76 0zM658.12 553.5 a3.38 3.38 0 1 0 6.76 0 a3.38 3.38 0 1 0 -6.76 0z"
         fill="black"
         id="path481" />
      <path
         d="M10.12 418.5 a3.38 3.38 0 1 0 6.76 0 a3.38 3.38 0 1 0 -6.76 0zM523.12 553.5 a3.38 3.38 0 1 0 6.76 0 a3.38 3.38 0 1 0 -6.76 0z"
         fill="black"
         id="path483" />
      <path
         d="M118.12 94.5 a3.38 3.38 0 1 0 6.76 0 a3.38 3.38 0 1 0 -6.76 0zM577.12 337.5 a3.38 3.38 0 1 0 6.76 0 a3.38 3.38 0 1 0 -6.76 0z"
         fill="black"
         id="path485" />
      <path
         d="M1171.12 13.5 a3.38 3.38 0 1 0 6.76 0 a3.38 3.38 0 1 0 -6.76 0zM658.12 94.5 a3.38 3.38 0 1 0 6.76 0 a3.38 3.38 0 1 0 -6.76 0z"
         fill="black"
         id="path487" />
      <path
         d="M253.12 472.5 a3.38 3.38 0 1 0 6.76 0 a3.38 3.38 0 1 0 -6.76 0zM10.12 121.5 a3.38 3.38 0 1 0 6.76 0 a3.38 3.38 0 1 0 -6.76 0z"
         fill="black"
         id="path489" />
      <path
         d="M604.12 229.5 a3.38 3.38 0 1 0 6.76 0 a3.38 3.38 0 1 0 -6.76 0zM631.12 364.5 a3.38 3.38 0 1 0 6.76 0 a3.38 3.38 0 1 0 -6.76 0z"
         fill="black"
         id="path491" />
      <path
         d="M1036.12 553.5 a3.38 3.38 0 1 0 6.76 0 a3.38 3.38 0 1 0 -6.76 0zM1441.12 418.5 a3.38 3.38 0 1 0 6.76 0 a3.38 3.38 0 1 0 -6.76 0z"
         fill="black"
         id="path493" />
      <path
         d="M172.12 526.5 a3.38 3.38 0 1 0 6.76 0 a3.38 3.38 0 1 0 -6.76 0zM118.12 499.5 a3.38 3.38 0 1 0 6.76 0 a3.38 3.38 0 1 0 -6.76 0z"
         fill="black"
         id="path495" />
      <path
         d="M577.12 40.5 a3.38 3.38 0 1 0 6.76 0 a3.38 3.38 0 1 0 -6.76 0zM523.12 202.5 a3.38 3.38 0 1 0 6.76 0 a3.38 3.38 0 1 0 -6.76 0z"
         fill="black"
         id="path497" />
      <path
         d="M361.12 418.5 a3.38 3.38 0 1 0 6.76 0 a3.38 3.38 0 1 0 -6.76 0zM361.12 526.5 a3.38 3.38 0 1 0 6.76 0 a3.38 3.38 0 1 0 -6.76 0z"
         fill="black"
         id="path499" />
      <path
         d="M820.12 418.5 a3.38 3.38 0 1 0 6.76 0 a3.38 3.38 0 1 0 -6.76 0zM874.12 40.5 a3.38 3.38 0 1 0 6.76 0 a3.38 3.38 0 1 0 -6.76 0z"
         fill="black"
         id="path501" />
      <path
         d="M982.12 526.5 a3.38 3.38 0 1 0 6.76 0 a3.38 3.38 0 1 0 -6.76 0zM793.12 553.5 a3.38 3.38 0 1 0 6.76 0 a3.38 3.38 0 1 0 -6.76 0z"
         fill="black"
         id="path503" />
      <path
         d="M658.12 175.5 a3.38 3.38 0 1 0 6.76 0 a3.38 3.38 0 1 0 -6.76 0zM550.12 229.5 a3.38 3.38 0 1 0 6.76 0 a3.38 3.38 0 1 0 -6.76 0z"
         fill="black"
         id="path505" />
      <path
         d="M577.12 472.5 a3.38 3.38 0 1 0 6.76 0 a3.38 3.38 0 1 0 -6.76 0zM577.12 229.5 a3.38 3.38 0 1 0 6.76 0 a3.38 3.38 0 1 0 -6.76 0z"
         fill="black"
         id="path507" />
      <path
         d="M1414.12 229.5 a3.38 3.38 0 1 0 6.76 0 a3.38 3.38 0 1 0 -6.76 0zM1225.12 13.5 a3.38 3.38 0 1 0 6.76 0 a3.38 3.38 0 1 0 -6.76 0z"
         fill="black"
         id="path509" />
      <path
         d="M1252.12 499.5 a3.38 3.38 0 1 0 6.76 0 a3.38 3.38 0 1 0 -6.76 0zM1063.12 553.5 a3.38 3.38 0 1 0 6.76 0 a3.38 3.38 0 1 0 -6.76 0z"
         fill="black"
         id="path511" />
      <path
         d="M253.12 175.5 a3.38 3.38 0 1 0 6.76 0 a3.38 3.38 0 1 0 -6.76 0zM307.12 499.5 a3.38 3.38 0 1 0 6.76 0 a3.38 3.38 0 1 0 -6.76 0z"
         fill="black"
         id="path513" />
      <path
         d="M145.12 175.5 a3.38 3.38 0 1 0 6.76 0 a3.38 3.38 0 1 0 -6.76 0zM37.12 337.5 a3.38 3.38 0 1 0 6.76 0 a3.38 3.38 0 1 0 -6.76 0z"
         fill="black"
         id="path515" />
      <path
         d="M1414.12 148.5 a3.38 3.38 0 1 0 6.76 0 a3.38 3.38 0 1 0 -6.76 0zM1441.12 391.5 a3.38 3.38 0 1 0 6.76 0 a3.38 3.38 0 1 0 -6.76 0z"
         fill="black"
         id="path517" />
      <path
         d="M1333.12 202.5 a3.38 3.38 0 1 0 6.76 0 a3.38 3.38 0 1 0 -6.76 0zM820.12 202.5 a3.38 3.38 0 1 0 6.76 0 a3.38 3.38 0 1 0 -6.76 0z"
         fill="black"
         id="path519" />
      <path
         d="M1306.12 364.5 a3.38 3.38 0 1 0 6.76 0 a3.38 3.38 0 1 0 -6.76 0zM1414.12 256.5 a3.38 3.38 0 1 0 6.76 0 a3.38 3.38 0 1 0 -6.76 0z"
         fill="black"
         id="path521" />
      <path
         d="M1117.12 67.5 a3.38 3.38 0 1 0 6.76 0 a3.38 3.38 0 1 0 -6.76 0zM1009.12 121.5 a3.38 3.38 0 1 0 6.76 0 a3.38 3.38 0 1 0 -6.76 0z"
         fill="black"
         id="path523" />
      <path
         d="M361.12 283.5 a3.38 3.38 0 1 0 6.76 0 a3.38 3.38 0 1 0 -6.76 0zM577.12 445.5 a3.38 3.38 0 1 0 6.76 0 a3.38 3.38 0 1 0 -6.76 0z"
         fill="black"
         id="path525" />
      <path
         d="M1306.12 310.5 a3.38 3.38 0 1 0 6.76 0 a3.38 3.38 0 1 0 -6.76 0zM1360.12 202.5 a3.38 3.38 0 1 0 6.76 0 a3.38 3.38 0 1 0 -6.76 0z"
         fill="black"
         id="path527" />
      <path
         d="M712.12 499.5 a3.38 3.38 0 1 0 6.76 0 a3.38 3.38 0 1 0 -6.76 0zM793.12 445.5 a3.38 3.38 0 1 0 6.76 0 a3.38 3.38 0 1 0 -6.76 0z"
         fill="black"
         id="path529" />
      <path
         d="M631.12 121.5 a3.38 3.38 0 1 0 6.76 0 a3.38 3.38 0 1 0 -6.76 0zM631.12 175.5 a3.38 3.38 0 1 0 6.76 0 a3.38 3.38 0 1 0 -6.76 0z"
         fill="black"
         id="path531" />
      <path
         d="M91.12 175.5 a3.38 3.38 0 1 0 6.76 0 a3.38 3.38 0 1 0 -6.76 0zM550.12 337.5 a3.38 3.38 0 1 0 6.76 0 a3.38 3.38 0 1 0 -6.76 0z"
         fill="black"
         id="path533" />
      <path
         d="M1090.12 202.5 a3.38 3.38 0 1 0 6.76 0 a3.38 3.38 0 1 0 -6.76 0zM1036.12 445.5 a3.38 3.38 0 1 0 6.76 0 a3.38 3.38 0 1 0 -6.76 0z"
         fill="black"
         id="path535" />
      <path
         d="M388.12 391.5 a3.38 3.38 0 1 0 6.76 0 a3.38 3.38 0 1 0 -6.76 0zM388.12 310.5 a3.38 3.38 0 1 0 6.76 0 a3.38 3.38 0 1 0 -6.76 0z"
         fill="black"
         id="path537" />
      <path
         d="M1090.12 94.5 a3.38 3.38 0 1 0 6.76 0 a3.38 3.38 0 1 0 -6.76 0zM982.12 364.5 a3.38 3.38 0 1 0 6.76 0 a3.38 3.38 0 1 0 -6.76 0z"
         fill="black"
         id="path539" />
      <path
         d="M1360.12 40.5 a3.38 3.38 0 1 0 6.76 0 a3.38 3.38 0 1 0 -6.76 0zM1387.12 175.5 a3.38 3.38 0 1 0 6.76 0 a3.38 3.38 0 1 0 -6.76 0z"
         fill="black"
         id="path541" />
      <path
         d="M1171.12 364.5 a3.38 3.38 0 1 0 6.76 0 a3.38 3.38 0 1 0 -6.76 0zM928.12 499.5 a3.38 3.38 0 1 0 6.76 0 a3.38 3.38 0 1 0 -6.76 0z"
         fill="black"
         id="path543" />
      <path
         d="M739.12 229.5 a3.38 3.38 0 1 0 6.76 0 a3.38 3.38 0 1 0 -6.76 0zM685.12 175.5 a3.38 3.38 0 1 0 6.76 0 a3.38 3.38 0 1 0 -6.76 0z"
         fill="black"
         id="path545" />
      <path
         d="M577.12 553.5 a3.38 3.38 0 1 0 6.76 0 a3.38 3.38 0 1 0 -6.76 0zM631.12 472.5 a3.38 3.38 0 1 0 6.76 0 a3.38 3.38 0 1 0 -6.76 0z"
         fill="black"
         id="path547" />
      <path
         d="M1252.12 553.5 a3.38 3.38 0 1 0 6.76 0 a3.38 3.38 0 1 0 -6.76 0zM1441.12 553.5 a3.38 3.38 0 1 0 6.76 0 a3.38 3.38 0 1 0 -6.76 0z"
         fill="black"
         id="path549" />
      <path
         d="M1063.12 526.5 a3.38 3.38 0 1 0 6.76 0 a3.38 3.38 0 1 0 -6.76 0zM1441.12 526.5 a3.38 3.38 0 1 0 6.76 0 a3.38 3.38 0 1 0 -6.76 0z"
         fill="black"
         id="path551" />
      <path
         d="M226.12 526.5 a3.38 3.38 0 1 0 6.76 0 a3.38 3.38 0 1 0 -6.76 0zM334.12 526.5 a3.38 3.38 0 1 0 6.76 0 a3.38 3.38 0 1 0 -6.76 0z"
         fill="black"
         id="path553" />
      <path
         d="M874.12 337.5 a3.38 3.38 0 1 0 6.76 0 a3.38 3.38 0 1 0 -6.76 0zM982.12 67.5 a3.38 3.38 0 1 0 6.76 0 a3.38 3.38 0 1 0 -6.76 0z"
         fill="black"
         id="path555" />
      <path
         d="M1252.12 202.5 a3.38 3.38 0 1 0 6.76 0 a3.38 3.38 0 1 0 -6.76 0zM1414.12 391.5 a3.38 3.38 0 1 0 6.76 0 a3.38 3.38 0 1 0 -6.76 0z"
         fill="black"
         id="path557" />
      <path
         d="M37.12 553.5 a3.38 3.38 0 1 0 6.76 0 a3.38 3.38 0 1 0 -6.76 0zM37.12 472.5 a3.38 3.38 0 1 0 6.76 0 a3.38 3.38 0 1 0 -6.76 0z"
         fill="black"
         id="path559" />
      <path
         d="M658.12 418.5 a3.38 3.38 0 1 0 6.76 0 a3.38 3.38 0 1 0 -6.76 0zM766.12 418.5 a3.38 3.38 0 1 0 6.76 0 a3.38 3.38 0 1 0 -6.76 0z"
         fill="black"
         id="path561" />
      <path
         d="M1279.12 283.5 a3.38 3.38 0 1 0 6.76 0 a3.38 3.38 0 1 0 -6.76 0zM1279.12 364.5 a3.38 3.38 0 1 0 6.76 0 a3.38 3.38 0 1 0 -6.76 0z"
         fill="black"
         id="path563" />
      <path
         d="M874.12 256.5 a3.38 3.38 0 1 0 6.76 0 a3.38 3.38 0 1 0 -6.76 0zM820.12 229.5 a3.38 3.38 0 1 0 6.76 0 a3.38 3.38 0 1 0 -6.76 0z"
         fill="black"
         id="path565" />
      <path
         d="M361.12 121.5 a3.38 3.38 0 1 0 6.76 0 a3.38 3.38 0 1 0 -6.76 0zM172.12 202.5 a3.38 3.38 0 1 0 6.76 0 a3.38 3.38 0 1 0 -6.76 0z"
         fill="black"
         id="path567" />
      <path
         d="M280.12 202.5 a3.38 3.38 0 1 0 6.76 0 a3.38 3.38 0 1 0 -6.76 0zM226.12 148.5 a3.38 3.38 0 1 0 6.76 0 a3.38 3.38 0 1 0 -6.76 0z"
         fill="black"
         id="path569" />
      <path
         d="M955.12 175.5 a3.38 3.38 0 1 0 6.76 0 a3.38 3.38 0 1 0 -6.76 0zM847.12 445.5 a3.38 3.38 0 1 0 6.76 0 a3.38 3.38 0 1 0 -6.76 0z"
         fill="black"
         id="path571" />
      <path
         d="M199.12 256.5 a3.38 3.38 0 1 0 6.76 0 a3.38 3.38 0 1 0 -6.76 0zM334.12 499.5 a3.38 3.38 0 1 0 6.76 0 a3.38 3.38 0 1 0 -6.76 0z"
         fill="black"
         id="path573" />
      <path
         d="M10.12 94.5 a3.38 3.38 0 1 0 6.76 0 a3.38 3.38 0 1 0 -6.76 0zM253.12 13.5 a3.38 3.38 0 1 0 6.76 0 a3.38 3.38 0 1 0 -6.76 0z"
         fill="black"
         id="path575" />
      <path
         d="M307.12 337.5 a3.38 3.38 0 1 0 6.76 0 a3.38 3.38 0 1 0 -6.76 0zM199.12 229.5 a3.38 3.38 0 1 0 6.76 0 a3.38 3.38 0 1 0 -6.76 0z"
         fill="black"
         id="path577" />
      <path
         d="M712.12 310.5 a3.38 3.38 0 1 0 6.76 0 a3.38 3.38 0 1 0 -6.76 0zM793.12 391.5 a3.38 3.38 0 1 0 6.76 0 a3.38 3.38 0 1 0 -6.76 0z"
         fill="black"
         id="path579" />
      <path
         d="M415.12 499.5 a3.38 3.38 0 1 0 6.76 0 a3.38 3.38 0 1 0 -6.76 0zM388.12 526.5 a3.38 3.38 0 1 0 6.76 0 a3.38 3.38 0 1 0 -6.76 0z"
         fill="black"
         id="path581" />
      <path
         d="M523.12 445.5 a3.38 3.38 0 1 0 6.76 0 a3.38 3.38 0 1 0 -6.76 0zM469.12 418.5 a3.38 3.38 0 1 0 6.76 0 a3.38 3.38 0 1 0 -6.76 0z"
         fill="black"
         id="path583" />
      <path
         d="M1333.12 472.5 a3.38 3.38 0 1 0 6.76 0 a3.38 3.38 0 1 0 -6.76 0zM1387.12 526.5 a3.38 3.38 0 1 0 6.76 0 a3.38 3.38 0 1 0 -6.76 0z"
         fill="black"
         id="path585" />
      <path
         d="M118.12 40.5 a3.38 3.38 0 1 0 6.76 0 a3.38 3.38 0 1 0 -6.76 0zM226.12 40.5 a3.38 3.38 0 1 0 6.76 0 a3.38 3.38 0 1 0 -6.76 0z"
         fill="black"
         id="path587" />
      <path
         d="M523.12 310.5 a3.38 3.38 0 1 0 6.76 0 a3.38 3.38 0 1 0 -6.76 0zM253.12 256.5 a3.38 3.38 0 1 0 6.76 0 a3.38 3.38 0 1 0 -6.76 0z"
         fill="black"
         id="path589" />
      <path
         d="M1144.12 202.5 a3.38 3.38 0 1 0 6.76 0 a3.38 3.38 0 1 0 -6.76 0zM1117.12 364.5 a3.38 3.38 0 1 0 6.76 0 a3.38 3.38 0 1 0 -6.76 0z"
         fill="black"
         id="path591" />
      <path
         d="M307.12 283.5 a3.38 3.38 0 1 0 6.76 0 a3.38 3.38 0 1 0 -6.76 0zM307.12 445.5 a3.38 3.38 0 1 0 6.76 0 a3.38 3.38 0 1 0 -6.76 0z"
         fill="black"
         id="path593" />
      <path
         d="M1198.12 175.5 a3.38 3.38 0 1 0 6.76 0 a3.38 3.38 0 1 0 -6.76 0zM1144.12 364.5 a3.38 3.38 0 1 0 6.76 0 a3.38 3.38 0 1 0 -6.76 0z"
         fill="black"
         id="path595" />
      <path
         d="M847.12 94.5 a3.38 3.38 0 1 0 6.76 0 a3.38 3.38 0 1 0 -6.76 0zM739.12 94.5 a3.38 3.38 0 1 0 6.76 0 a3.38 3.38 0 1 0 -6.76 0z"
         fill="black"
         id="path597" />
      <path
         d="M928.12 121.5 a3.38 3.38 0 1 0 6.76 0 a3.38 3.38 0 1 0 -6.76 0zM739.12 121.5 a3.38 3.38 0 1 0 6.76 0 a3.38 3.38 0 1 0 -6.76 0z"
         fill="black"
         id="path599" />
      <path
         d="M523.12 175.5 a3.38 3.38 0 1 0 6.76 0 a3.38 3.38 0 1 0 -6.76 0zM523.12 13.5 a3.38 3.38 0 1 0 6.76 0 a3.38 3.38 0 1 0 -6.76 0z"
         fill="black"
         id="path601" />
      <path
         d="M928.12 472.5 a3.38 3.38 0 1 0 6.76 0 a3.38 3.38 0 1 0 -6.76 0zM1009.12 418.5 a3.38 3.38 0 1 0 6.76 0 a3.38 3.38 0 1 0 -6.76 0z"
         fill="black"
         id="path603" />
      <path
         d="M1306.12 526.5 a3.38 3.38 0 1 0 6.76 0 a3.38 3.38 0 1 0 -6.76 0zM1279.12 472.5 a3.38 3.38 0 1 0 6.76 0 a3.38 3.38 0 1 0 -6.76 0z"
         fill="black"
         id="path605" />
      <path
         d="M442.12 13.5 a3.38 3.38 0 1 0 6.76 0 a3.38 3.38 0 1 0 -6.76 0zM496.12 175.5 a3.38 3.38 0 1 0 6.76 0 a3.38 3.38 0 1 0 -6.76 0z"
         fill="black"
         id="path607" />
      <path
         d="M334.12 256.5 a3.38 3.38 0 1 0 6.76 0 a3.38 3.38 0 1 0 -6.76 0zM388.12 256.5 a3.38 3.38 0 1 0 6.76 0 a3.38 3.38 0 1 0 -6.76 0z"
         fill="black"
         id="path609" />
      <path
         d="M658.12 256.5 a3.38 3.38 0 1 0 6.76 0 a3.38 3.38 0 1 0 -6.76 0zM793.12 310.5 a3.38 3.38 0 1 0 6.76 0 a3.38 3.38 0 1 0 -6.76 0z"
         fill="black"
         id="path611" />
      <path
         d="M1036.12 121.5 a3.38 3.38 0 1 0 6.76 0 a3.38 3.38 0 1 0 -6.76 0zM1036.12 175.5 a3.38 3.38 0 1 0 6.76 0 a3.38 3.38 0 1 0 -6.76 0z"
         fill="black"
         id="path613" />
      <path
         d="M388.12 418.5 a3.38 3.38 0 1 0 6.76 0 a3.38 3.38 0 1 0 -6.76 0zM388.12 472.5 a3.38 3.38 0 1 0 6.76 0 a3.38 3.38 0 1 0 -6.76 0z"
         fill="black"
         id="path615" />
      <path
         d="M1414.12 40.5 a3.38 3.38 0 1 0 6.76 0 a3.38 3.38 0 1 0 -6.76 0zM1252.12 13.5 a3.38 3.38 0 1 0 6.76 0 a3.38 3.38 0 1 0 -6.76 0z"
         fill="black"
         id="path617" />
      <path
         d="M1306.12 202.5 a3.38 3.38 0 1 0 6.76 0 a3.38 3.38 0 1 0 -6.76 0zM1333.12 283.5 a3.38 3.38 0 1 0 6.76 0 a3.38 3.38 0 1 0 -6.76 0z"
         fill="black"
         id="path619" />
      <path
         d="M1144.12 175.5 a3.38 3.38 0 1 0 6.76 0 a3.38 3.38 0 1 0 -6.76 0zM1117.12 229.5 a3.38 3.38 0 1 0 6.76 0 a3.38 3.38 0 1 0 -6.76 0z"
         fill="black"
         id="path621" />
      <path
         d="M415.12 472.5 a3.38 3.38 0 1 0 6.76 0 a3.38 3.38 0 1 0 -6.76 0zM415.12 310.5 a3.38 3.38 0 1 0 6.76 0 a3.38 3.38 0 1 0 -6.76 0z"
         fill="black"
         id="path623" />
      <path
         d="M1225.12 148.5 a3.38 3.38 0 1 0 6.76 0 a3.38 3.38 0 1 0 -6.76 0zM1117.12 148.5 a3.38 3.38 0 1 0 6.76 0 a3.38 3.38 0 1 0 -6.76 0z"
         fill="black"
         id="path625" />
      <path
         d="M847.12 391.5 a3.38 3.38 0 1 0 6.76 0 a3.38 3.38 0 1 0 -6.76 0zM928.12 202.5 a3.38 3.38 0 1 0 6.76 0 a3.38 3.38 0 1 0 -6.76 0z"
         fill="black"
         id="path627" />
      <path
         d="M550.12 40.5 a3.38 3.38 0 1 0 6.76 0 a3.38 3.38 0 1 0 -6.76 0zM550.12 148.5 a3.38 3.38 0 1 0 6.76 0 a3.38 3.38 0 1 0 -6.76 0z"
         fill="black"
         id="path629" />
      <path
         d="M118.12 553.5 a3.38 3.38 0 1 0 6.76 0 a3.38 3.38 0 1 0 -6.76 0zM64.12 499.5 a3.38 3.38 0 1 0 6.76 0 a3.38 3.38 0 1 0 -6.76 0z"
         fill="black"
         id="path631" />
      <path
         d="M631.12 40.5 a3.38 3.38 0 1 0 6.76 0 a3.38 3.38 0 1 0 -6.76 0zM712.12 13.5 a3.38 3.38 0 1 0 6.76 0 a3.38 3.38 0 1 0 -6.76 0z"
         fill="black"
         id="path633" />
      <path
         d="M10.12 553.5 a3.38 3.38 0 1 0 6.76 0 a3.38 3.38 0 1 0 -6.76 0zM10.12 499.5 a3.38 3.38 0 1 0 6.76 0 a3.38 3.38 0 1 0 -6.76 0z"
         fill="black"
         id="path635" />
      <path
         d="M469.12 283.5 a3.38 3.38 0 1 0 6.76 0 a3.38 3.38 0 1 0 -6.76 0zM469.12 229.5 a3.38 3.38 0 1 0 6.76 0 a3.38 3.38 0 1 0 -6.76 0z"
         fill="black"
         id="path637" />
      <path
         d="M64.12 283.5 a3.38 3.38 0 1 0 6.76 0 a3.38 3.38 0 1 0 -6.76 0zM118.12 202.5 a3.38 3.38 0 1 0 6.76 0 a3.38 3.38 0 1 0 -6.76 0z"
         fill="black"
         id="path639" />
      <path
         d="M1225.12 310.5 a3.38 3.38 0 1 0 6.76 0 a3.38 3.38 0 1 0 -6.76 0zM1171.12 337.5 a3.38 3.38 0 1 0 6.76 0 a3.38 3.38 0 1 0 -6.76 0z"
         fill="black"
         id="path641" />
      <path
         d="M172.12 499.5 a3.38 3.38 0 1 0 6.76 0 a3.38 3.38 0 1 0 -6.76 0zM280.12 499.5 a3.38 3.38 0 1 0 6.76 0 a3.38 3.38 0 1 0 -6.76 0z"
         fill="black"
         id="path643" />
      <path
         d="M1171.12 499.5 a3.38 3.38 0 1 0 6.76 0 a3.38 3.38 0 1 0 -6.76 0zM1252.12 445.5 a3.38 3.38 0 1 0 6.76 0 a3.38 3.38 0 1 0 -6.76 0z"
         fill="black"
         id="path645" />
      <path
         d="M37.12 148.5 a3.38 3.38 0 1 0 6.76 0 a3.38 3.38 0 1 0 -6.76 0zM91.12 40.5 a3.38 3.38 0 1 0 6.76 0 a3.38 3.38 0 1 0 -6.76 0z"
         fill="black"
         id="path647" />
      <path
         d="M604.12 175.5 a3.38 3.38 0 1 0 6.76 0 a3.38 3.38 0 1 0 -6.76 0zM604.12 94.5 a3.38 3.38 0 1 0 6.76 0 a3.38 3.38 0 1 0 -6.76 0z"
         fill="black"
         id="path649" />
      <path
         d="M1414.12 364.5 a3.38 3.38 0 1 0 6.76 0 a3.38 3.38 0 1 0 -6.76 0zM1360.12 337.5 a3.38 3.38 0 1 0 6.76 0 a3.38 3.38 0 1 0 -6.76 0z"
         fill="black"
         id="path651" />
      <path
         d="M1144.12 310.5 a3.38 3.38 0 1 0 6.76 0 a3.38 3.38 0 1 0 -6.76 0zM1171.12 175.5 a3.38 3.38 0 1 0 6.76 0 a3.38 3.38 0 1 0 -6.76 0z"
         fill="black"
         id="path653" />
      <path
         d="M1441.12 148.5 a3.38 3.38 0 1 0 6.76 0 a3.38 3.38 0 1 0 -6.76 0zM1387.12 67.5 a3.38 3.38 0 1 0 6.76 0 a3.38 3.38 0 1 0 -6.76 0z"
         fill="black"
         id="path655" />
      <path
         d="M334.12 391.5 a3.38 3.38 0 1 0 6.76 0 a3.38 3.38 0 1 0 -6.76 0zM280.12 391.5 a3.38 3.38 0 1 0 6.76 0 a3.38 3.38 0 1 0 -6.76 0z"
         fill="black"
         id="path657" />
      <path
         d="M1144.12 445.5 a3.38 3.38 0 1 0 6.76 0 a3.38 3.38 0 1 0 -6.76 0zM1225.12 445.5 a3.38 3.38 0 1 0 6.76 0 a3.38 3.38 0 1 0 -6.76 0z"
         fill="black"
         id="path659" />
      <path
         d="M874.12 229.5 a3.38 3.38 0 1 0 6.76 0 a3.38 3.38 0 1 0 -6.76 0zM901.12 337.5 a3.38 3.38 0 1 0 6.76 0 a3.38 3.38 0 1 0 -6.76 0z"
         fill="black"
         id="path661" />
      <path
         d="M1225.12 391.5 a3.38 3.38 0 1 0 6.76 0 a3.38 3.38 0 1 0 -6.76 0zM1198.12 337.5 a3.38 3.38 0 1 0 6.76 0 a3.38 3.38 0 1 0 -6.76 0z"
         fill="black"
         id="path663" />
      <path
         d="M64.12 391.5 a3.38 3.38 0 1 0 6.76 0 a3.38 3.38 0 1 0 -6.76 0zM172.12 337.5 a3.38 3.38 0 1 0 6.76 0 a3.38 3.38 0 1 0 -6.76 0z"
         fill="black"
         id="path665" />
      <path
         d="M685.12 337.5 a3.38 3.38 0 1 0 6.76 0 a3.38 3.38 0 1 0 -6.76 0zM631.12 283.5 a3.38 3.38 0 1 0 6.76 0 a3.38 3.38 0 1 0 -6.76 0z"
         fill="black"
         id="path667" />
      <path
         d="M496.12 499.5 a3.38 3.38 0 1 0 6.76 0 a3.38 3.38 0 1 0 -6.76 0zM469.12 445.5 a3.38 3.38 0 1 0 6.76 0 a3.38 3.38 0 1 0 -6.76 0z"
         fill="black"
         id="path669" />
      <path
         d="M334.12 310.5 a3.38 3.38 0 1 0 6.76 0 a3.38 3.38 0 1 0 -6.76 0zM334.12 364.5 a3.38 3.38 0 1 0 6.76 0 a3.38 3.38 0 1 0 -6.76 0z"
         fill="black"
         id="path671" />
      <path
         d="M1117.12 121.5 a3.38 3.38 0 1 0 6.76 0 a3.38 3.38 0 1 0 -6.76 0zM1171.12 67.5 a3.38 3.38 0 1 0 6.76 0 a3.38 3.38 0 1 0 -6.76 0z"
         fill="black"
         id="path673" />
      <path
         d="M631.12 310.5 a3.38 3.38 0 1 0 6.76 0 a3.38 3.38 0 1 0 -6.76 0zM739.12 391.5 a3.38 3.38 0 1 0 6.76 0 a3.38 3.38 0 1 0 -6.76 0z"
         fill="black"
         id="path675" />
      <path
         d="M658.12 445.5 a3.38 3.38 0 1 0 6.76 0 a3.38 3.38 0 1 0 -6.76 0zM739.12 445.5 a3.38 3.38 0 1 0 6.76 0 a3.38 3.38 0 1 0 -6.76 0z"
         fill="black"
         id="path677" />
      <path
         d="M91.12 121.5 a3.38 3.38 0 1 0 6.76 0 a3.38 3.38 0 1 0 -6.76 0zM91.12 67.5 a3.38 3.38 0 1 0 6.76 0 a3.38 3.38 0 1 0 -6.76 0z"
         fill="black"
         id="path679" />
      <path
         d="M118.12 364.5 a3.38 3.38 0 1 0 6.76 0 a3.38 3.38 0 1 0 -6.76 0zM91.12 418.5 a3.38 3.38 0 1 0 6.76 0 a3.38 3.38 0 1 0 -6.76 0z"
         fill="black"
         id="path681" />
      <path
         d="M226.12 337.5 a3.38 3.38 0 1 0 6.76 0 a3.38 3.38 0 1 0 -6.76 0zM226.12 283.5 a3.38 3.38 0 1 0 6.76 0 a3.38 3.38 0 1 0 -6.76 0z"
         fill="black"
         id="path683" />
      <path
         d="M91.12 202.5 a3.38 3.38 0 1 0 6.76 0 a3.38 3.38 0 1 0 -6.76 0zM37.12 310.5 a3.38 3.38 0 1 0 6.76 0 a3.38 3.38 0 1 0 -6.76 0z"
         fill="black"
         id="path685" />
      <path
         d="M685.12 40.5 a3.38 3.38 0 1 0 6.76 0 a3.38 3.38 0 1 0 -6.76 0zM631.12 67.5 a3.38 3.38 0 1 0 6.76 0 a3.38 3.38 0 1 0 -6.76 0z"
         fill="black"
         id="path687" />
      <path
         d="M64.12 94.5 a3.38 3.38 0 1 0 6.76 0 a3.38 3.38 0 1 0 -6.76 0zM64.12 175.5 a3.38 3.38 0 1 0 6.76 0 a3.38 3.38 0 1 0 -6.76 0z"
         fill="black"
         id="path689" />
      <path
         d="M1279.12 67.5 a3.38 3.38 0 1 0 6.76 0 a3.38 3.38 0 1 0 -6.76 0zM1333.12 40.5 a3.38 3.38 0 1 0 6.76 0 a3.38 3.38 0 1 0 -6.76 0z"
         fill="black"
         id="path691" />
      <path
         d="M334.12 13.5 a3.38 3.38 0 1 0 6.76 0 a3.38 3.38 0 1 0 -6.76 0zM442.12 121.5 a3.38 3.38 0 1 0 6.76 0 a3.38 3.38 0 1 0 -6.76 0z"
         fill="black"
         id="path693" />
      <path
         d="M685.12 283.5 a3.38 3.38 0 1 0 6.76 0 a3.38 3.38 0 1 0 -6.76 0zM766.12 283.5 a3.38 3.38 0 1 0 6.76 0 a3.38 3.38 0 1 0 -6.76 0z"
         fill="black"
         id="path695" />
      <path
         d="M226.12 364.5 a3.38 3.38 0 1 0 6.76 0 a3.38 3.38 0 1 0 -6.76 0zM280.12 337.5 a3.38 3.38 0 1 0 6.76 0 a3.38 3.38 0 1 0 -6.76 0z"
         fill="black"
         id="path697" />
      <path
         d="M1279.12 256.5 a3.38 3.38 0 1 0 6.76 0 a3.38 3.38 0 1 0 -6.76 0zM1252.12 148.5 a3.38 3.38 0 1 0 6.76 0 a3.38 3.38 0 1 0 -6.76 0z"
         fill="black"
         id="path699" />
      <path
         d="M64.12 13.5 a3.38 3.38 0 1 0 6.76 0 a3.38 3.38 0 1 0 -6.76 0zM10.12 67.5 a3.38 3.38 0 1 0 6.76 0 a3.38 3.38 0 1 0 -6.76 0z"
         fill="black"
         id="path701" />
      <path
         d="M361.12 13.5 a3.38 3.38 0 1 0 6.76 0 a3.38 3.38 0 1 0 -6.76 0zM469.12 94.5 a3.38 3.38 0 1 0 6.76 0 a3.38 3.38 0 1 0 -6.76 0z"
         fill="black"
         id="path703" />
      <path
         d="M1441.12 445.5 a3.38 3.38 0 1 0 6.76 0 a3.38 3.38 0 1 0 -6.76 0zM1360.12 445.5 a3.38 3.38 0 1 0 6.76 0 a3.38 3.38 0 1 0 -6.76 0z"
         fill="black"
         id="path705" />
      <path
         d="M1063.12 310.5 a3.38 3.38 0 1 0 6.76 0 a3.38 3.38 0 1 0 -6.76 0zM1063.12 229.5 a3.38 3.38 0 1 0 6.76 0 a3.38 3.38 0 1 0 -6.76 0z"
         fill="black"
         id="path707" />
      <path
         d="M874.12 148.5 a3.38 3.38 0 1 0 6.76 0 a3.38 3.38 0 1 0 -6.76 0zM928.12 148.5 a3.38 3.38 0 1 0 6.76 0 a3.38 3.38 0 1 0 -6.76 0z"
         fill="black"
         id="path709" />
      <path
         d="M172.12 256.5 a3.38 3.38 0 1 0 6.76 0 a3.38 3.38 0 1 0 -6.76 0zM145.12 310.5 a3.38 3.38 0 1 0 6.76 0 a3.38 3.38 0 1 0 -6.76 0z"
         fill="black"
         id="path711" />
      <path
         d="M442.12 67.5 a3.38 3.38 0 1 0 6.76 0 a3.38 3.38 0 1 0 -6.76 0zM388.12 13.5 a3.38 3.38 0 1 0 6.76 0 a3.38 3.38 0 1 0 -6.76 0z"
         fill="black"
         id="path713" />
    </mask>
  </defs>
</svg>
