<?xml version="1.0" encoding="UTF-8" standalone="no"?>
<!-- Created with Inkscape (http://www.inkscape.org/) -->

<svg
   version="1.1"
   id="svg1470"
   width="926.64093"
   height="926.64093"
   viewBox="0 0 926.64093 926.64093"
   sodipodi:docname="livro-de-contato.svg"
   inkscape:version="1.1.1 (3bf5ae0d25, 2021-09-20)"
   xmlns:inkscape="http://www.inkscape.org/namespaces/inkscape"
   xmlns:sodipodi="http://sodipodi.sourceforge.net/DTD/sodipodi-0.dtd"
   xmlns="http://www.w3.org/2000/svg"
   xmlns:svg="http://www.w3.org/2000/svg">
  <defs
     id="defs1474" />
  <sodipodi:namedview
     id="namedview1472"
     pagecolor="#ffffff"
     bordercolor="#666666"
     borderopacity="1.0"
     inkscape:pageshadow="2"
     inkscape:pageopacity="0.0"
     inkscape:pagecheckerboard="0"
     showgrid="false"
     inkscape:zoom="0.25792083"
     inkscape:cx="-143.45487"
     inkscape:cy="310.1727"
     inkscape:window-width="1366"
     inkscape:window-height="697"
     inkscape:window-x="-8"
     inkscape:window-y="-8"
     inkscape:window-maximized="1"
     inkscape:current-layer="g1476" />
  <g
     inkscape:groupmode="layer"
     inkscape:label="Image"
     id="g1476">
    <path
       style="fill:#091d34;stroke-width:3.70656;fill-opacity:1"
       d="m 216.48198,890.99431 c -22.08992,-7.83426 -43.98335,-28.25395 -55.47384,-51.73966 -8.03753,-16.42812 -10.38085,-27.40318 -11.85066,-55.50301 l -1.83207,-35.02577 h -27.02943 c -30.25033,0 -38.678618,-4.74225 -38.678618,-21.76283 0,-15.91902 6.146268,-19.00937 37.806948,-19.00937 h 28.9112 v -66.71815 -66.71814 l -23.16603,-0.0545 c -29.67646,-0.0702 -41.343748,-5.758 -42.825638,-20.87785 -1.80876,-18.45487 6.507048,-23.54643 38.457188,-23.54643 h 27.53448 v -66.71814 -66.71815 h -25.12122 c -29.69075,0 -41.596928,-6.26124 -41.596928,-21.8751 0,-17.00721 9.937638,-22.60367 40.137418,-22.60367 h 26.58073 V 285.4054 218.68725 h -27.22476 c -30.28156,0 -39.493388,-5.42252 -39.493388,-23.24771 0,-14.82168 12.402358,-21.23106 41.082808,-21.23106 h 24.60709 l 1.85679,-32.43243 c 2.29089,-40.01485 12.49299,-65.603622 34.09441,-85.515112 32.17312,-29.656152 18.93918,-28.46172 315.34732,-28.46172 249.95138,0 264.08573,0.354707 281.48145,7.063913 24.27643,9.362958 47.39546,31.26206 58.17593,55.106095 l 8.75961,19.374394 v 352.12355 c 0,325.74772 -0.48241,353.3286 -6.4402,368.21127 -10.2048,25.49174 -26.90835,43.56065 -51.73981,55.96907 l -22.69514,11.3409 -267.20721,-0.29245 C 274.71769,896.4506 229.27979,895.53326 216.48198,890.9945 Z m 553.438,-43.11397 c 6.5201,-3.56541 16.52782,-12.60873 22.23938,-20.09621 l 10.38464,-13.61361 1.00007,-347.05843 1.00007,-347.05839 -8.60868,-16.27925 C 790.02757,92.602482 782.26306,84.81745 771.1864,78.95996 L 755.04598,70.424711 H 498.80819 242.57037 l -16.37611,8.339768 c -23.37711,11.905134 -33.37999,32.350751 -33.37999,68.227771 v 27.21624 h 26.11443 c 22.78434,0 27.27458,1.16016 35.21235,9.09793 11.03656,11.03657 11.46721,18.1853 1.6848,27.96771 -6.09523,6.09524 -12.35521,7.41313 -35.21235,7.41313 h -27.79923 v 66.71815 66.71814 h 27.79923 c 22.85714,0 29.11712,1.31789 35.21235,7.41313 9.39052,9.39051 9.33434,15.09068 -0.26902,27.29936 -7.06723,8.98453 -9.88582,9.76628 -35.21235,9.76628 h -27.53021 v 66.71815 66.71814 h 29.56706 c 27.57518,0 29.9828,0.63449 35.73814,9.41823 4.96196,7.57292 5.35074,11.21866 1.98428,18.60725 -5.41091,11.87564 -18.01188,16.45329 -45.2914,16.45329 h -21.99808 v 66.71814 66.71815 h 29.56706 c 27.79548,0 29.94763,0.58082 35.9185,9.69352 5.69345,8.68929 5.78486,10.70526 0.88238,19.45946 -5.13295,9.16577 -7.36266,9.83247 -36.28148,10.84833 l -30.81242,1.08243 1.28962,32.93778 c 1.02344,26.13936 2.86697,35.04916 8.93177,43.16731 10.61584,14.21004 24.40274,23.86783 39.14508,27.42123 6.88478,1.65951 125.93864,2.7432 264.56412,2.40823 232.30596,-0.56132 252.97479,-1.11675 263.90108,-7.09162 z M 352.52825,664.77272 c -8.20062,-5.74395 -8.60497,-7.7797 -6.65816,-33.52105 2.59483,-34.30955 17.45883,-67.67307 41.69123,-93.57943 61.19759,-65.42522 162.50049,-64.75967 223.5476,1.46862 24.72026,26.81832 41.31925,68.01818 41.31925,102.55724 0,30.01342 4.33961,29.18993 -153.82239,29.18993 -121.63178,0 -138.34564,-0.69968 -146.07753,-6.11531 z M 605.9019,618.0695 c -11.20187,-36.67782 -28.23538,-58.11699 -57.98578,-72.98343 -38.50964,-19.24347 -82.48368,-15.28913 -116.23461,10.45237 -17.40751,13.27654 -35.62108,40.76022 -40.21144,60.67778 l -2.34914,10.19305 H 498.78495 608.44898 Z M 462.45926,450.619 c -31.623,-11.28515 -59.21521,-45.37227 -64.32864,-79.47088 -8.85135,-59.02521 40.00194,-115.45392 99.87236,-115.35901 75.41819,0.11953 123.54755,77.56647 90.29067,145.2904 -11.26503,22.94 -31.61328,41.70426 -53.82846,49.63819 -17.5961,6.28426 -54.2605,6.234 -72.00593,-0.0986 z m 60.16346,-43.82363 c 23.80989,-12.16628 31.58151,-24.70784 31.58151,-50.96525 0,-16.26892 -1.95121,-24.3134 -7.80057,-32.16063 -24.15216,-32.40128 -71.28782,-32.6118 -95.27808,-0.42552 -4.51148,6.05279 -8.10807,17.82757 -9.05735,29.65251 -1.29067,16.07739 -0.007,21.9519 7.12535,32.58615 9.02574,13.45894 36.01026,29.65251 49.4122,29.65251 4.2326,0 15.04023,-3.7529 24.01694,-8.33977 z"
       id="path1555" />
  </g>
</svg>
