<?xml version="1.0" encoding="UTF-8" standalone="no"?>
<!-- Created with Inkscape (http://www.inkscape.org/) -->

<svg
   width="201"
   height="50"
   viewBox="0 0 53.181248 13.229167"
   version="1.1"
   id="svg5"
   inkscape:version="1.1.1 (3bf5ae0d25, 2021-09-20)"
   sodipodi:docname="logo.svg"
   xmlns:inkscape="http://www.inkscape.org/namespaces/inkscape"
   xmlns:sodipodi="http://sodipodi.sourceforge.net/DTD/sodipodi-0.dtd"
   xmlns="http://www.w3.org/2000/svg"
   xmlns:svg="http://www.w3.org/2000/svg">
  <sodipodi:namedview
     id="namedview7"
     pagecolor="#ffffff"
     bordercolor="#666666"
     borderopacity="1.0"
     inkscape:pageshadow="2"
     inkscape:pageopacity="0.0"
     inkscape:pagecheckerboard="0"
     inkscape:document-units="mm"
     showgrid="false"
     units="px"
     inkscape:zoom="1.8101934"
     inkscape:cx="143.63107"
     inkscape:cy="-14.915534"
     inkscape:window-width="1366"
     inkscape:window-height="697"
     inkscape:window-x="-8"
     inkscape:window-y="-8"
     inkscape:window-maximized="1"
     inkscape:current-layer="layer1" />
  <defs
     id="defs2" />
  <g
     inkscape:label="Camada 1"
     inkscape:groupmode="layer"
     id="layer1"
     transform="translate(0,-283.77082)">
    <path
       id="path1463"
       style="fill:#609ce1;fill-opacity:1;stroke-width:0.0846665"
       d="m 52.859,291.64892 h -0.846663 c -0.790993,0 -0.846662,-0.0112 -0.846662,-0.1698 0,-0.0934 0.217706,-0.43629 0.483794,-0.762 0.388593,-0.47567 0.530211,-0.5922 0.719663,-0.5922 0.129728,0 0.235869,0.0291 0.235869,0.0647 0,0.0356 -0.192229,0.3023 -0.427175,0.59266 l -0.427175,0.52795 H 52.304826 52.859 Z m 0,-1.69334 h -0.846663 -0.846662 v -0.21166 -0.21167 H 52.012337 52.859 Z m -2.393586,-5.63915 c -0.02813,-0.0281 -0.10116,-0.0311 -0.162278,-0.007 -0.06754,0.027 -0.04748,0.0471 0.05115,0.0512 0.08925,0.004 0.139259,-0.0163 0.111125,-0.0445 z m -40.438372,11.61398 c -0.6701598,-0.52728 -1.2568012,-1.03004 -1.303647,-1.11726 -0.04685,-0.0872 -0.0961,-0.17194 -0.1094605,-0.18829 -0.01336,-0.0163 -0.1590363,0.0731 -0.3237307,0.19868 l -0.2994458,0.2284 -0.2861898,-0.24101 c -0.1574043,-0.13256 -0.7517477,-0.64107 -1.3207631,-1.13001 l -1.0345744,-0.889 -1.4513077,-0.0423 -1.4513066,-0.0423 -1.0377058,-1.31233 c -0.57073785,-0.72179 -1.03869249,-1.38854 -1.03989909,-1.48167 -0.00121,-0.0931 0.0931016,-0.66434 0.20957268,-1.26934 l 0.21176647,-1.10001 1.02952984,-1.03201 1.0295301,-1.03201 1.1923987,-0.54828 1.1923978,-0.54827 1.7376424,-0.17721 c 0.9557037,-0.0975 1.86286,-0.1772 2.0159033,-0.1772 0.2601388,0 5.4938672,1.79932 5.6134902,1.92988 0.07476,0.0816 1.089253,4.09933 1.089253,4.31382 0,0.14879 -0.821502,1.58288 -1.279769,2.23408 -0.08623,0.12253 -0.719376,0.6138 -1.406996,1.0917 -0.68762,0.4779 -1.281674,0.89678 -1.32012,0.93085 -0.03845,0.0341 0.199678,0.56137 0.529164,1.1718 0.329486,0.61043 0.599067,1.12952 0.599067,1.15353 0,0.024 -0.352423,0.0416 -0.783163,0.0391 l -0.783164,-0.005 -1.218473,-0.95869 z m 1.000181,-0.76403 c -0.241085,-0.4512 -0.404894,-0.85019 -0.364021,-0.88663 0.04087,-0.0365 0.741062,-0.53433 1.555976,-1.10641 0.814913,-0.57208 1.508906,-1.08243 1.542206,-1.13411 0.04335,-0.0673 -0.425208,-0.106 -1.649467,-0.13631 l -1.710014,-0.0423 -0.198368,-0.35984 -0.198369,-0.35983 H 8.7415159 c -0.6950082,0 -1.2636517,0.0296 -1.2636517,0.0658 0,0.0362 0.05931,0.15051 0.1318004,0.254 0.09773,0.13954 0.2168051,0.18817 0.460668,0.18817 0.1808774,0 0.3524147,-0.0381 0.3811946,-0.0847 0.1590772,-0.25739 0.8043304,0.1242 0.8043304,0.47566 0,0.30241 -0.3811443,0.65966 -0.6186082,0.57982 -0.1021476,-0.0343 -0.4507501,-0.0858 -0.7746729,-0.11446 l -0.5889514,-0.052 -0.3882782,-0.67733 C 6.5459803,291.1839 6.4643347,291.09534 6.2372277,291.07292 6.0036987,291.04982 5.9269,290.95796 5.478798,290.16527 l -0.4985898,-0.882 -1.8732418,-0.002 -1.8732414,-0.002 -0.051519,0.2576 c -0.043857,0.21928 0.013439,0.34206 0.3852361,0.8255 0.676248,0.87931 0.5959113,0.84874 0.9528158,0.36254 0.2848107,-0.38799 0.3471254,-0.42964 0.6428521,-0.42964 0.1801092,0 0.4245131,-0.0442 0.5431207,-0.0983 0.5889253,-0.26833 1.0598613,0.60463 0.5204726,0.9648 -0.1370064,0.0915 -0.5405806,0.0781 -0.6011553,-0.0199 -0.02878,-0.0466 -0.1244474,-0.0847 -0.2125951,-0.0847 -0.1814672,0 -0.67227,0.65937 -0.6144563,0.8255 0.02743,0.0788 0.3885253,0.10583 1.4148558,0.10583 h 1.3780229 l 0.3417615,0.27517 c 0.1879682,0.15134 0.7221558,0.60854 1.1870838,1.01599 0.464928,0.40746 0.8711942,0.74083 0.902814,0.74083 0.03162,0 0.3554627,-0.22682 0.7196501,-0.50405 0.3641884,-0.27724 0.685787,-0.48044 0.7146649,-0.45156 0.02888,0.0289 0.052809,0.37953 0.05319,0.77923 l 6.77e-4,0.72671 0.9518144,0.73046 c 0.523497,0.40175 0.963223,0.72054 0.977168,0.70842 0.01394,-0.0121 -0.171896,-0.3912 -0.41298,-0.84241 z m 3.524346,-4.45524 c 0.387742,-0.61423 0.419365,-0.58622 -0.662,-0.58622 -0.69434,0 -1.063851,0.0382 -1.292273,0.13366 -0.30071,0.12564 -0.333064,0.12384 -0.539505,-0.0301 -0.535838,-0.39966 -0.153619,-1.18262 0.462896,-0.94822 0.119631,0.0455 0.655747,0.0827 1.191368,0.0827 0.887879,0 0.969954,-0.0131 0.929646,-0.14817 -0.02432,-0.0815 -0.08877,-0.33 -0.143237,-0.55224 l -0.09903,-0.40408 -1.489336,0.0231 -1.489338,0.0231 -0.259937,0.46567 -0.259937,0.46566 -1.8173446,0.0239 c -0.9995398,0.0132 -1.8935439,0.005 -1.9866775,-0.0187 -0.1071515,-0.027 -0.3541755,-0.37002 -0.672704,-0.9341 L 5.9207901,287.41566 H 3.9642806 2.0077723 l -0.2647508,0.27517 c -0.1456129,0.15134 -0.2905664,0.37994 -0.3221192,0.508 l -0.057369,0.23283 H 3.393885 5.4242371 l 0.5013228,0.86784 0.5013218,0.86783 1.9369367,0.0228 c 1.3176752,0.0155 1.9748986,0.0543 2.0556736,0.12134 0.06531,0.0542 0.192925,0.24396 0.283601,0.4217 l 0.164866,0.32317 h 1.732876 1.732876 z m -3.671295,-2.85106 0.288748,-0.48683 1.592782,-0.0231 1.592786,-0.0231 -0.05375,-0.1886 c -0.02956,-0.10372 -0.0775,-0.29766 -0.106535,-0.43097 -0.06306,-0.28954 0.07786,-0.22739 -2.790267,-1.23063 l -2.2121341,-0.77379 -1.8095153,0.17482 -1.809517,0.17481 -1.0159955,0.47826 c -0.5587975,0.26304 -1.14871,0.60418 -1.3109163,0.75808 l -0.2949217,0.27983 h 1.7873812 c 1.4976884,0 1.8047301,0.0209 1.8944247,0.12898 0.092719,0.11171 0.1357414,0.0862 0.3214435,-0.1905 0.1179206,-0.17572 0.25539,-0.34747 0.3054887,-0.38169 0.0501,-0.0342 0.5941184,-0.0628 1.2089329,-0.0635 0.6651341,-7.7e-4 1.2051796,-0.0411 1.3334941,-0.0996 0.4521868,-0.20603 0.9162558,0.27672 0.7071648,0.73563 -0.12199,0.26773 -0.416196,0.34541 -0.8165403,0.21557 -0.1838542,-0.0596 -0.6666111,-0.09 -1.1865178,-0.0746 l -0.8765463,0.026 -0.2540219,0.35101 -0.2540219,0.35101 0.22845,0.38982 0.228451,0.38983 h 1.5064516 1.5064516 z m 7.60421,2.7305 v -1.05833 h 0.234746 c 0.177731,0 0.271053,0.0668 0.384241,0.27517 0.08222,0.15134 0.218736,0.36601 0.303363,0.47704 l 0.153865,0.20187 0.287389,-0.47464 c 0.23916,-0.39498 0.32762,-0.47504 0.527126,-0.47704 l 0.239738,-0.002 -0.191963,0.3175 c -0.310618,0.51375 -0.841121,1.29117 -0.881082,1.29117 -0.02031,0 -0.17129,-0.19952 -0.33551,-0.44337 l -0.298582,-0.44337 v 0.69737 c 0,0.68742 -0.003,0.69737 -0.211665,0.69737 h -0.211666 z m 1.693747,0.52917 c 3.38e-4,-0.43641 0.03691,-0.57369 0.20862,-0.78317 l 0.2082,-0.254 0.003,0.78317 c 0.003,0.77975 0.0021,0.78317 -0.208621,0.78317 -0.203244,0 -0.211649,-0.0211 -0.211245,-0.52917 z m 0.817809,-0.21167 c 0.16333,-0.40745 0.327061,-0.77229 0.363845,-0.81074 0.03678,-0.0385 0.107578,0.0468 0.157319,0.18951 0.07619,0.21856 0.0545,0.3462 -0.137647,0.8101 -0.200054,0.48299 -0.255884,0.55075 -0.454282,0.55132 l -0.226198,6.7e-4 0.296963,-0.74083 z m 1.170564,0.381 c -0.08044,-0.1979 -0.232968,-0.60748 -0.338957,-0.91016 -0.105988,-0.30269 -0.21984,-0.61701 -0.253,-0.6985 -0.04908,-0.12062 -0.01529,-0.14817 0.181686,-0.14817 0.231787,0 0.25624,0.0401 0.580556,0.95238 0.439321,1.23575 0.427986,1.16429 0.184645,1.16429 -0.166122,0 -0.238507,-0.0734 -0.35493,-0.35984 z m 1.56719,-0.35983 c 0,-0.7112 0.0025,-0.71967 0.211666,-0.71967 0.209175,0 0.211666,0.009 0.211666,0.71967 0,0.7112 -0.0025,0.71967 -0.211666,0.71967 -0.209176,0 -0.211666,-0.009 -0.211666,-0.71967 z m 1.523994,-0.33867 v -1.05833 h 0.211666 0.211664 v 1.05833 1.05834 h -0.211664 -0.211666 z m 1.354661,0.635 v -0.42333 h -0.338666 c -0.304798,0 -0.338666,-0.0212 -0.338666,-0.21167 0,-0.1905 0.03387,-0.21166 0.338666,-0.21166 h 0.338666 v -0.42334 c 0,-0.39511 0.01411,-0.42333 0.211665,-0.42333 h 0.211666 v 1.05833 1.05834 h -0.211666 c -0.197555,0 -0.211665,-0.0282 -0.211665,-0.42334 z m 0.931329,0.20849 v -0.21484 l 0.783163,0.0243 c 0.739149,0.023 0.784684,0.0351 0.810218,0.21484 0.02644,0.18617 0.0086,0.1905 -0.783163,0.1905 h -0.810218 z m 2.364143,-0.0326 c -0.239081,-0.23908 -0.247486,-0.27502 -0.247486,-1.05833 0,-0.80846 6.23e-4,-0.81085 0.211665,-0.81085 0.210085,0 0.211667,0.006 0.211667,0.76129 0,0.66959 0.0204,0.77402 0.169331,0.86703 0.203637,0.12717 0.230129,0.48835 0.03582,0.48835 -0.07343,0 -0.244882,-0.11137 -0.380998,-0.24749 z m 0.76851,0.0663 c 0,-0.0996 0.06667,-0.22989 0.148165,-0.28945 0.117871,-0.0862 0.154217,-0.26551 0.177758,-0.87717 0.02915,-0.75747 0.03276,-0.76888 0.24293,-0.76888 h 0.213341 l -0.03603,0.78317 c -0.03827,0.83184 -0.136182,1.09052 -0.470419,1.24281 -0.266551,0.12145 -0.275744,0.11843 -0.275744,-0.0905 z m 1.185327,-0.0305 c 0,-0.19977 0.02581,-0.21166 0.459521,-0.21166 0.395581,0 0.483934,-0.031 0.634996,-0.22309 0.09651,-0.12269 0.175478,-0.27509 0.175478,-0.33866 0,-0.0683 0.0909,-0.11559 0.222249,-0.11559 0.204648,0 0.217979,0.0213 0.168327,0.26961 -0.104357,0.5218 -0.563212,0.83106 -1.233034,0.83106 -0.399595,0 -0.427537,-0.0138 -0.427537,-0.21167 z m 3.809984,0.12921 c 0,-0.12479 0.509791,-1.38805 0.595841,-1.47649 0.0446,-0.0458 0.113182,0.0226 0.168529,0.16819 0.07838,0.20617 0.05735,0.33719 -0.131336,0.81812 -0.190937,0.48667 -0.255321,0.57264 -0.42885,0.57264 -0.112302,0 -0.204184,-0.0371 -0.204184,-0.0825 z m 1.395985,-0.27737 c -0.08052,-0.19791 -0.253686,-0.67416 -0.384822,-1.05834 l -0.238428,-0.6985 h 0.237527 c 0.226531,0 0.253723,0.0455 0.587295,0.9828 0.192372,0.54053 0.349768,1.01678 0.349768,1.05833 0,0.0415 -0.09111,0.0755 -0.202473,0.0755 -0.158795,0 -0.234053,-0.0776 -0.348867,-0.35983 z m 1.059338,-0.6985 v -1.05834 h 0.211665 0.211666 v 0.84667 0.84667 h 0.507998 c 0.48542,0 0.507998,0.009 0.507998,0.21166 0,0.20918 -0.0085,0.21167 -0.719664,0.21167 h -0.719663 z m 2.116657,0.90059 c 0,-0.13348 0.08629,-0.16467 0.561005,-0.20278 0.572512,-0.046 0.778374,-0.17353 0.609113,-0.37747 -0.05616,-0.0677 -0.293946,-0.10868 -0.630154,-0.10868 -0.516716,0 -0.539964,-0.009 -0.539964,-0.20762 0,-0.19556 0.03077,-0.2091 0.529165,-0.23284 0.464317,-0.0221 0.529165,-0.046 0.529165,-0.19454 0,-0.14858 -0.06485,-0.17242 -0.529165,-0.19454 -0.4984,-0.0237 -0.529165,-0.0373 -0.529165,-0.23283 0,-0.19838 0.02357,-0.20757 0.529165,-0.20638 0.692683,0.002 0.944348,0.12962 0.979829,0.49828 0.01503,0.1562 -0.01096,0.3223 -0.05776,0.3691 -0.05701,0.057 -0.02938,0.16045 0.08374,0.31345 0.120167,0.16253 0.15233,0.29411 0.111586,0.45645 -0.09105,0.36277 -0.339671,0.47814 -1.030401,0.47814 -0.544621,0 -0.616158,-0.0183 -0.616159,-0.15774 z m 2.201324,-0.0539 c 0,-0.21093 0.0028,-0.21167 0.80433,-0.21167 0.801507,0 0.804329,7.6e-4 0.804329,0.21167 0,0.21092 -0.0028,0.21166 -0.804329,0.21166 -0.801508,0 -0.80433,-7.6e-4 -0.80433,-0.21166 z m 2.116656,-0.3348 v -0.54646 l 0.562661,-0.025 c 0.41377,-0.0184 0.586102,-0.0624 0.651254,-0.16611 0.165606,-0.26369 -0.07411,-0.40926 -0.673949,-0.40926 -0.525369,0 -0.539966,-0.006 -0.539966,-0.22063 v -0.22064 l 0.668703,0.0304 c 0.808,0.0367 1.024624,0.17874 1.024624,0.67188 0,0.24256 -0.0526,0.36077 -0.218641,0.49138 l -0.218639,0.17198 0.206148,0.27867 c 0.346937,0.46896 0.349899,0.49032 0.068,0.49032 -0.206963,0 -0.301985,-0.0668 -0.481913,-0.33866 -0.15658,-0.23661 -0.284513,-0.33867 -0.424533,-0.33867 -0.177372,0 -0.200414,0.0389 -0.200414,0.33867 0,0.3048 -0.02117,0.33866 -0.211666,0.33866 -0.203914,0 -0.211667,-0.02 -0.211667,-0.54646 z m 2.116658,-0.25787 c 0,-0.44238 0.03373,-0.80433 0.07493,-0.80433 0.19726,0 0.348403,0.43946 0.348403,1.01302 0,0.57891 -0.0059,0.59564 -0.211665,0.59564 -0.210923,0 -0.211667,-0.003 -0.211668,-0.80433 z m 0.80433,-0.17942 c -0.372532,-0.53682 -0.69003,-1.01133 -0.705552,-1.05447 -0.01552,-0.0431 0.06769,-0.0784 0.184919,-0.0784 0.168624,0 0.311558,0.13647 0.684385,0.65345 l 0.471246,0.65346 v -0.65346 c 0,-0.64057 0.0042,-0.65345 0.211665,-0.65345 h 0.211666 v 1.05833 c 0,1.04223 -0.0029,1.05828 -0.190499,1.05447 -0.145618,-0.003 -0.350075,-0.23381 -0.86783,-0.97989 z m 1.337124,0.87792 c 0.0236,-0.0582 0.166989,-0.42016 0.318637,-0.80433 0.151649,-0.38418 0.299511,-0.6985 0.328582,-0.6985 0.02907,0 0.09327,0.10706 0.142658,0.23791 0.07377,0.19543 0.05074,0.33905 -0.128947,0.80433 -0.199301,0.51607 -0.240314,0.56642 -0.461296,0.56642 -0.16048,0 -0.228027,-0.0358 -0.199634,-0.10583 z m 1.512306,-0.0423 c -0.09488,-0.18137 -0.690438,-1.83789 -0.690438,-1.92044 0,-0.0326 0.101305,-0.0473 0.225123,-0.0325 0.201815,0.024 0.257596,0.11473 0.538784,0.87622 0.479251,1.29787 0.466239,1.2249 0.218438,1.2249 -0.118209,0 -0.249167,-0.0665 -0.291907,-0.14816 z m -22.788342,-0.91018 c 0,-0.20917 0.0085,-0.21166 0.719664,-0.21166 0.711196,0 0.719663,0.002 0.719663,0.21166 0,0.20918 -0.0085,0.21167 -0.719663,0.21167 -0.711197,0 -0.719664,-0.002 -0.719664,-0.21167 z m 14.901268,0 c 0,-0.20917 0.0085,-0.21166 0.719663,-0.21166 0.711197,0 0.719664,0.002 0.719664,0.21166 0,0.20918 -0.0085,0.21167 -0.719664,0.21167 -0.711197,0 -0.719663,-0.002 -0.719663,-0.21167 z m -10.58297,-0.0635 c 5.08e-4,-0.30441 0.317256,-0.74066 0.633814,-0.87292 0.160468,-0.067 0.464433,-0.12191 0.675476,-0.12191 0.352855,0 0.383718,0.017 0.383718,0.21167 0,0.19624 -0.02948,0.21166 -0.404492,0.21166 -0.483134,0 -0.747423,0.16313 -0.823192,0.50811 -0.04322,0.1968 -0.101854,0.25389 -0.260703,0.25389 -0.156178,0 -0.204864,-0.0453 -0.204621,-0.1905 z m -8.805611,-0.78316 v -0.21167 h 0.888995 0.888996 v 0.21167 0.21166 H 23.94546 23.056465 Z m 4.487313,0.003 v -0.21485 h 0.810218 c 0.791799,0 0.809604,0.004 0.783163,0.1905 -0.02553,0.1798 -0.07106,0.19187 -0.810218,0.21485 l -0.783163,0.0243 v -0.21485 z m 14.901268,-0.003 c 0,-0.21093 0.0028,-0.21167 0.80433,-0.21167 0.801507,0 0.804329,7.5e-4 0.804329,0.21167 0,0.21092 -0.0028,0.21166 -0.804329,0.21166 -0.801508,0 -0.80433,-7.6e-4 -0.80433,-0.21166 z" />
  </g>
</svg>
